<?xml version="1.0" standalone="no"?>
<!DOCTYPE svg PUBLIC "-//W3C//DTD SVG 20010904//EN"
 "http://www.w3.org/TR/2001/REC-SVG-20010904/DTD/svg10.dtd">
<svg version="1.0" xmlns="http://www.w3.org/2000/svg"
 width="260.000000pt" height="260.000000pt" viewBox="0 0 260.000000 260.000000"
 preserveAspectRatio="xMidYMid meet">
<metadata>
Created by potrace 1.11, written by Peter Selinger 2001-2013
</metadata>
<g transform="translate(0.000000,260.000000) scale(0.100000,-0.100000)"
fill="#000000" stroke="none">
<path d="M1120 2535 c-305 -47 -576 -197 -762 -422 -195 -236 -288 -490 -288
-788 0 -213 36 -364 133 -560 63 -128 206 -313 229 -298 6 3 8 1 4 -5 -3 -5
20 -33 51 -62 367 -328 931 -396 1370 -164 283 149 501 404 597 699 45 139 59
229 59 385 0 214 -38 377 -129 556 -238 467 -756 737 -1264 659z m190 -20
c-20 -24 -50 -28 -71 -9 -19 17 -20 17 -26 -4 -5 -20 -7 -21 -39 -7 -34 14
-34 14 -28 -9 9 -37 -34 -41 -110 -10 -15 5 -17 4 -11 -6 4 -7 9 -30 10 -52
l2 -39 -25 17 c-25 16 -25 16 -19 -12 l5 -28 -28 34 c-16 19 -31 32 -34 30 -3
-3 -6 -26 -8 -50 -2 -33 0 -44 10 -42 8 1 11 -2 7 -8 -4 -7 -12 -7 -25 0 -27
14 -30 13 -30 -16 0 -26 -1 -26 -25 -10 -24 16 -25 16 -25 -9 0 -40 -20 -56
-51 -39 -30 17 -37 17 -36 2 1 -38 -4 -58 -16 -58 -8 0 -13 -10 -13 -22 1 -21
-3 -23 -43 -20 -29 3 -41 0 -36 -7 12 -20 -6 -33 -23 -18 -10 8 -27 18 -40 22
-20 6 -22 4 -17 -17 3 -13 1 -29 -4 -37 -8 -12 -13 -12 -35 3 -26 16 -26 16
-26 -14 0 -16 -5 -30 -11 -30 -5 0 -8 4 -5 9 7 10 -19 23 -28 14 -3 -3 -1 -15
5 -26 8 -14 8 -18 0 -13 -7 5 -11 -8 -11 -39 0 -43 -1 -45 -20 -35 -19 10 -20
8 -20 -35 0 -42 -2 -46 -20 -40 -22 7 -28 -10 -7 -19 6 -4 2 -4 -10 -2 -19 3
-21 0 -17 -24 5 -22 -1 -33 -26 -57 l-32 -30 31 -6 c28 -6 45 -27 21 -27 -5 0
-10 -4 -10 -10 0 -5 23 -7 52 -4 45 4 49 3 28 -7 l-25 -11 22 -9 c15 -5 32 -3
50 6 28 15 48 11 24 -4 -11 -7 -9 -11 5 -20 15 -8 16 -10 3 -11 -8 0 -20 5
-26 11 -8 8 -18 6 -37 -6 -24 -16 -29 -16 -72 -1 -53 18 -65 15 -41 -12 21
-23 22 -46 2 -38 -53 21 -50 22 -32 -4 9 -14 17 -32 17 -41 0 -21 -41 -32 -74
-19 -14 5 -26 8 -26 6 0 -14 26 -74 37 -88 13 -14 13 -21 2 -47 -7 -16 -22
-33 -34 -36 -17 -6 -15 -8 15 -17 44 -12 46 -14 30 -33 -16 -20 -10 -26 29
-27 29 -1 30 -2 16 -18 -22 -24 -18 -36 5 -15 25 22 36 14 20 -15 -14 -27 -6
-37 15 -20 21 17 28 8 35 -48 5 -37 8 -43 15 -27 4 11 23 35 42 53 28 26 34
39 31 62 -4 26 -1 29 31 35 20 3 44 9 54 11 18 6 18 5 0 -23 -10 -15 -23 -34
-30 -41 -7 -7 -13 -27 -13 -44 0 -17 -7 -40 -17 -50 -18 -20 -11 -37 9 -21 7
6 23 14 35 17 17 6 21 3 17 -11 -2 -11 10 -33 31 -56 38 -40 45 -44 45 -24 0
6 10 31 22 54 21 40 22 43 5 61 -17 19 -17 21 9 41 27 21 81 30 69 11 -10 -16
-13 -100 -3 -100 13 0 9 -44 -4 -59 -11 -12 -9 -13 7 -6 11 4 32 11 48 15 26
8 27 7 21 -18 l-7 -27 22 20 23 19 19 -24 c10 -14 19 -32 19 -40 0 -17 59 49
60 67 0 7 8 12 18 11 39 -3 54 2 48 17 -3 8 -9 22 -12 30 -4 10 0 15 11 15 9
0 15 3 13 8 -3 4 -10 22 -17 39 -7 18 -18 33 -24 33 -7 0 -3 6 7 12 15 8 22 7
31 -6 16 -21 25 -20 25 3 0 11 5 23 11 27 8 4 10 -11 7 -50 -1 -31 0 -56 5
-56 4 0 7 5 7 10 0 6 6 10 13 10 6 0 25 7 41 15 34 18 40 13 56 -45 12 -43 -3
-187 -25 -251 -42 -118 -77 -138 -275 -160 -63 -6 -160 -25 -215 -42 -55 -16
-118 -35 -140 -41 -44 -13 -115 -48 -156 -77 l-26 -18 -60 92 c-148 228 -212
453 -200 714 9 200 50 356 138 521 65 123 114 188 218 293 162 163 389 285
611 328 30 6 64 13 75 15 11 2 60 4 109 5 76 1 87 -1 76 -14z m286 -20 c467
-127 801 -486 888 -956 21 -110 21 -328 1 -434 -30 -162 -98 -328 -188 -463
-32 -48 -47 -62 -62 -58 -87 18 -154 40 -148 49 3 6 7 65 8 131 2 118 -5 148
-42 195 -2 3 -30 5 -63 6 -32 1 -65 6 -72 12 -20 15 -126 35 -140 27 -7 -5
-37 -34 -66 -65 -29 -31 -63 -60 -76 -63 -15 -4 -24 -13 -24 -24 1 -9 -8 -39
-20 -65 l-22 -48 -31 18 c-17 10 -50 35 -73 55 -46 40 -49 48 -76 253 -6 44
-15 110 -20 147 -15 100 -12 170 6 196 24 35 94 82 121 82 15 0 29 -10 41 -28
26 -43 64 -85 94 -104 l27 -18 -30 -32 c-28 -31 -28 -33 -9 -40 26 -10 26 -22
0 -15 -16 4 -20 0 -20 -19 0 -13 -9 -33 -19 -43 -22 -22 -18 -31 13 -31 15 0
17 -3 8 -12 -21 -21 -13 -26 25 -18 42 10 53 6 53 -18 0 -12 7 -9 25 13 13 17
24 36 25 43 0 11 33 17 68 13 14 -2 16 15 2 24 -5 3 -10 15 -10 26 0 20 34 27
45 9 12 -20 25 -9 25 21 0 26 3 29 14 20 7 -6 21 -9 30 -5 23 9 20 -13 -3 -26
-11 -5 -30 -24 -42 -42 -22 -31 -22 -31 -2 -26 19 5 20 2 15 -39 l-5 -44 27
13 c23 10 29 9 36 -2 5 -8 7 -25 4 -37 -7 -27 27 -48 63 -38 14 3 31 1 39 -6
26 -21 23 -5 -6 42 -27 45 -27 46 -8 58 18 11 19 10 13 -8 -4 -12 -2 -21 4
-21 6 0 11 6 12 13 0 6 5 -1 10 -18 5 -16 7 -36 4 -43 -2 -6 0 -12 5 -12 6 0
10 4 10 9 0 5 8 11 18 15 9 3 23 9 30 12 7 3 12 -1 12 -10 0 -27 18 -18 22 11
3 31 60 75 84 66 8 -3 14 0 14 5 0 6 -9 14 -20 17 -17 5 -18 10 -9 27 6 11 20
23 30 25 25 7 25 23 0 23 -25 0 -51 10 -51 20 0 4 18 10 40 14 37 6 57 26 26
26 -7 0 -18 6 -24 13 -14 16 2 36 52 67 l40 24 -32 8 c-41 11 -43 32 -2 23
l30 -7 -17 34 c-9 18 -20 40 -24 49 -6 12 1 21 27 35 39 21 40 22 17 40 -17
12 -17 14 5 29 33 24 27 42 -18 49 -27 4 -38 10 -34 18 7 12 13 78 7 78 -2 0
-17 -7 -33 -15 -28 -15 -30 -14 -30 5 0 11 -4 20 -8 20 -9 0 -36 -48 -37 -65
0 -5 -5 -16 -12 -23 -7 -7 -10 -19 -7 -26 8 -21 -33 -26 -78 -10 -22 8 -52 14
-65 14 l-24 0 22 32 c18 25 24 28 28 15 5 -12 72 -57 86 -57 1 0 1 15 2 34 1
19 11 47 22 63 12 16 24 47 28 68 l6 40 -27 -24 c-25 -24 -32 -19 -20 13 3 9
14 16 23 16 15 1 15 2 0 13 -15 11 -15 16 -3 40 14 27 14 27 -17 27 -28 0 -30
2 -18 17 13 15 10 16 -33 11 -46 -5 -48 -4 -48 19 0 13 -4 21 -10 18 -13 -8
-1 54 16 82 17 27 18 37 2 27 -14 -9 -88 -23 -88 -17 0 2 11 15 26 28 l25 23
-67 7 -66 8 4 48 c3 27 1 49 -3 49 -5 0 -9 -4 -9 -8 0 -5 -19 -18 -41 -30 -23
-13 -37 -16 -30 -9 14 18 3 77 -14 77 -7 0 -16 7 -19 16 -5 13 -9 14 -21 4 -8
-7 -15 -19 -15 -26 0 -8 -5 -14 -11 -14 -6 0 -10 12 -9 28 3 42 2 43 -37 16
-35 -23 -38 -24 -41 -7 -3 21 -44 103 -52 103 -8 0 -40 -83 -40 -102 0 -9 5
-20 10 -23 6 -3 10 -11 10 -17 0 -7 -6 -6 -15 2 -8 7 -15 24 -15 39 -1 25 -1
25 -15 7 -8 -11 -15 -16 -15 -11 0 5 -11 -2 -24 -14 -23 -22 -24 -22 -19 -3 3
11 15 23 28 26 29 7 39 36 30 82 -7 39 -8 40 -34 17 -49 -45 -51 -46 -51 -18
0 15 -4 24 -10 20 -5 -3 -17 10 -26 29 l-17 35 -29 -37 c-22 -27 -28 -44 -24
-63 3 -18 -1 -32 -13 -43 -34 -31 -44 18 -11 64 16 22 18 37 13 80 l-6 53 89
-7 c49 -3 130 -17 180 -31z m-278 -58 c-4 -28 -23 -19 -23 11 1 12 -3 22 -7
22 -9 0 -23 -50 -19 -69 1 -7 -2 -10 -8 -6 -16 9 -2 57 22 78 18 16 21 17 29
2 5 -8 8 -26 6 -38z m-120 27 c12 -8 22 -23 22 -32 -1 -14 -5 -12 -21 7 -11
13 -22 21 -26 17 -3 -3 2 -15 11 -25 21 -23 12 -49 -10 -30 -15 12 -20 79 -6
79 4 0 18 -7 30 -16z m-97 -24 c10 -6 19 -16 19 -22 0 -6 -9 -3 -20 7 -11 10
-20 13 -20 7 0 -6 5 -14 10 -17 18 -11 10 -26 -12 -23 -17 2 -24 11 -26 31 -4
30 13 36 49 17z m306 -20 c13 -20 8 -50 -9 -50 -6 0 -8 11 -6 25 7 33 -6 32
-22 -2 -7 -17 -14 -23 -17 -15 -5 13 22 62 35 62 4 0 13 -9 19 -20z m-267 -30
c-18 -11 -22 -7 -14 14 5 13 10 14 18 6 8 -8 7 -13 -4 -20z m369 -54 c-9 -8
-10 -5 -6 14 l6 25 -25 -28 c-17 -20 -24 -24 -24 -12 0 9 12 27 28 42 l27 25
3 -27 c2 -15 -2 -33 -9 -39z m-522 -3 c-12 -11 -37 6 -31 22 3 8 1 15 -6 15
-6 0 -8 5 -5 10 4 6 15 0 27 -15 11 -14 18 -29 15 -32z m230 44 c3 -4 -5 -7
-20 -7 -14 0 -28 4 -32 9 -6 11 41 8 52 -2z m-143 -28 c5 -4 6 -15 2 -25 -6
-16 -7 -16 -20 1 -8 12 -15 14 -20 7 -3 -6 -2 -13 4 -17 5 -3 10 -11 10 -17 0
-6 -9 -3 -20 7 -20 19 -28 41 -10 30 6 -3 10 1 10 9 0 9 -4 16 -10 16 -5 0
-10 4 -10 10 0 9 45 -5 64 -21z m369 -22 c-4 -7 -10 -2 -13 13 -9 33 1 50 12
21 4 -13 5 -28 1 -34z m177 28 c12 -15 5 -55 -11 -55 -5 0 -10 10 -10 23 l-2
22 -4 -22 c-2 -13 -9 -23 -14 -23 -11 0 -11 0 2 39 12 34 21 38 39 16z m-402
-15 c5 -13 3 -13 -11 -1 -10 8 -17 9 -17 3 0 -6 5 -14 10 -17 15 -9 12 -25 -4
-25 -14 0 -26 21 -26 47 0 19 42 13 48 -7z m202 13 c0 -5 -5 -15 -10 -23 -8
-12 -10 -11 -10 8 0 12 5 22 10 22 6 0 10 -3 10 -7z m-40 -46 c0 -11 -5 -17
-12 -14 -7 2 -12 13 -10 23 2 18 2 18 -13 0 -8 -11 -15 -16 -15 -11 0 5 8 17
17 27 18 20 33 9 33 -25z m-269 0 c-16 -16 -26 0 -10 19 9 11 15 12 17 4 2 -6
-1 -17 -7 -23z m199 -14 c0 -21 -20 -14 -30 10 -9 22 -9 22 -11 -3 -1 -18 -3
-20 -6 -7 -3 10 1 25 7 33 11 12 14 12 26 -3 7 -10 14 -24 14 -30z m-278 -7
c15 -23 7 -28 -14 -10 -19 16 -20 16 -9 1 8 -9 11 -20 8 -23 -10 -10 -24 5
-29 31 -5 22 -3 25 16 19 11 -4 24 -12 28 -18z m169 -1 c5 4 9 -4 9 -16 0 -19
-2 -20 -17 -8 -22 17 -33 31 -33 42 0 5 7 1 16 -7 8 -9 20 -14 25 -11z m260
-2 c-4 -16 -15 -29 -24 -31 -22 -4 -22 24 -1 32 9 4 14 9 11 12 -3 3 -15 1
-26 -6 -12 -6 -21 -7 -21 -1 0 10 21 18 52 20 13 1 15 -4 9 -26z m244 -32
c-16 -15 -17 -14 -10 9 7 22 6 23 -9 11 -14 -11 -16 -11 -16 1 0 8 10 20 23
25 18 9 23 7 25 -10 2 -11 -4 -27 -13 -36z m-754 38 c11 -5 17 -15 13 -20 -4
-6 -13 -4 -25 7 -20 18 -27 6 -7 -14 9 -9 8 -12 -5 -12 -11 0 -17 8 -17 25 0
27 10 31 41 14z m177 -37 c2 -6 -3 -12 -12 -12 -9 0 -16 7 -16 15 0 8 -4 15
-9 15 -5 0 -7 -8 -4 -19 3 -11 -2 -21 -13 -25 -28 -11 -38 9 -23 43 l14 30 29
-17 c16 -9 31 -23 34 -30z m133 18 c15 0 10 -17 -6 -24 -12 -4 -15 2 -14 27 1
18 3 24 6 15 2 -10 9 -18 14 -18z m523 15 c3 -9 0 -15 -9 -15 -9 0 -12 6 -9
15 4 8 7 15 9 15 2 0 5 -7 9 -15z m-224 -47 c0 -10 -7 -18 -16 -18 -12 0 -15
6 -10 26 5 17 3 23 -4 19 -11 -7 -14 8 -3 18 8 9 32 -24 33 -45z m85 32 c7
-22 0 -40 -16 -40 -6 0 -8 10 -4 23 6 19 3 18 -18 -8 -14 -16 -29 -27 -33 -22
-4 4 -2 7 4 7 7 0 12 9 12 20 0 17 23 39 42 40 4 0 9 -9 13 -20z m-750 -19 c3
-10 17 -23 30 -29 14 -6 25 -16 25 -22 0 -20 -19 -9 -54 33 l-36 42 6 -32 c4
-18 2 -33 -3 -33 -10 0 -16 47 -8 61 8 12 33 0 40 -20z m469 -15 c-6 -16 -24
-13 -24 5 0 6 5 7 10 4 6 -3 10 -1 10 4 0 6 -5 11 -11 11 -5 0 -7 5 -3 11 10
16 26 -15 18 -35z m-180 15 c9 -10 14 -25 11 -33 -8 -21 -33 -19 -28 3 3 9 0
20 -6 23 -6 4 -11 0 -11 -10 0 -10 -3 -15 -6 -11 -8 7 5 47 15 47 4 0 15 -8
25 -19z m-204 0 c0 -5 -7 -12 -16 -15 -24 -9 -28 -7 -14 9 14 17 30 20 30 6z
m312 -23 c-9 -9 -12 -7 -12 12 0 19 3 21 12 12 9 -9 9 -15 0 -24z m182 8 c-3
-9 -10 -13 -16 -10 -5 3 -4 12 3 20 15 18 22 13 13 -10z m46 17 c0 -5 -4 -15
-10 -23 -11 -18 -25 -7 -17 15 6 15 27 21 27 8z m280 -8 c0 -8 -4 -15 -9 -15
-5 0 -12 -8 -14 -17 -2 -10 -3 -8 -2 5 3 26 -11 28 -37 5 -15 -13 -18 -14 -18
-2 0 23 21 39 52 39 18 0 28 -5 28 -15z m-380 -41 c0 -27 -20 -24 -21 3 0 16
-3 21 -6 13 -9 -24 -25 -40 -34 -34 -5 3 1 19 13 35 21 28 24 29 35 13 7 -10
13 -23 13 -30z m-610 6 c0 -18 -19 -20 -24 -3 -3 10 -4 5 -2 -10 3 -24 1 -27
-10 -15 -8 7 -11 23 -8 35 5 19 10 21 25 12 10 -5 19 -14 19 -19z m198 18 c-3
-7 -15 -14 -29 -16 -23 -2 -23 -2 -5 13 24 18 39 20 34 3z m250 -35 c-4 -45
-21 -50 -28 -8 -5 28 -6 29 -18 10 -10 -18 -11 -18 -12 -2 0 15 11 22 33 18 4
0 7 4 7 9 0 6 5 10 11 10 6 0 9 -16 7 -37z m82 11 c0 -8 -4 -12 -10 -9 -5 3
-10 13 -10 21 0 8 5 12 10 9 6 -3 10 -13 10 -21z m360 19 c-1 -10 -36 -53 -44
-53 -4 0 0 14 9 30 14 27 35 41 35 23z m-780 -38 c15 -27 7 -55 -15 -55 -10 0
-15 10 -15 31 0 17 -4 28 -10 24 -11 -7 -12 -3 -4 19 7 19 28 11 44 -19z m111
8 c-8 -15 -10 -15 -11 -2 0 17 10 32 18 25 2 -3 -1 -13 -7 -23z m589 17 c0 -5
-5 -10 -11 -10 -5 0 -7 5 -4 10 3 6 8 10 11 10 2 0 4 -4 4 -10z m260 -70 c-6
-11 -15 -20 -21 -20 -16 0 -21 27 -9 50 6 12 9 24 6 27 -3 4 -11 -8 -17 -25
-11 -33 -23 -40 -34 -21 -8 12 22 48 50 59 16 6 21 2 28 -21 4 -17 3 -37 -3
-49z m-1029 27 c7 -46 -7 -49 -20 -4 -5 17 -10 24 -10 14 -1 -10 -6 -15 -11
-12 -14 8 8 47 23 42 7 -2 15 -20 18 -40z m211 11 c-15 -15 -26 -4 -18 18 5
13 9 15 18 6 9 -9 9 -15 0 -24z m233 -8 c2 -18 -2 -30 -9 -30 -8 0 -11 13 -8
36 5 41 14 38 17 -6z m181 28 c5 -7 3 -8 -6 -3 -10 6 -11 0 -6 -28 4 -19 2
-38 -3 -41 -13 -8 -32 19 -26 38 3 9 7 23 10 31 5 18 21 20 31 3z m99 -10
c-11 -37 -34 -68 -50 -68 -20 0 -19 39 0 46 8 4 15 11 15 16 0 6 -11 3 -25 -6
-24 -16 -25 -15 -25 3 0 23 13 29 58 30 30 1 33 -1 27 -21z m70 3 c-3 -6 -14
-11 -23 -11 -13 0 -13 2 4 14 21 15 30 14 19 -3z m-644 -44 c-8 -8 -11 -4 -11
14 0 33 14 47 18 19 2 -12 -1 -27 -7 -33z m149 27 c0 -22 -3 -24 -14 -15 -12
10 -13 8 -9 -8 8 -30 -16 -26 -27 5 -15 39 -13 44 20 44 26 0 30 -4 30 -26z
m604 10 c8 -20 -20 -54 -43 -54 -12 0 -9 6 9 20 l25 21 -27 -7 c-21 -5 -28 -2
-28 9 0 28 54 37 64 11z m-776 -21 c-2 -18 -10 -29 -22 -31 -19 -4 -19 -4 -1
14 11 12 14 19 6 22 -13 4 -5 22 10 22 6 0 9 -12 7 -27z m204 -9 c-3 -16 -7
-21 -12 -14 -9 15 -1 52 10 45 4 -2 5 -16 2 -31z m141 30 c3 -3 3 -13 0 -21
-5 -12 -7 -12 -14 -1 -15 23 -4 40 14 22z m18 -31 c-12 -20 -14 -14 -5 12 4 9
9 14 11 11 3 -2 0 -13 -6 -23z m-532 -18 c2 -14 -2 -17 -18 -12 -12 3 -21 1
-21 -4 0 -5 5 -9 11 -9 5 0 7 -5 3 -12 -10 -15 -34 19 -34 48 0 19 4 21 28 15
15 -4 29 -16 31 -26z m68 20 c0 -8 -4 -12 -9 -9 -4 3 -8 9 -8 15 0 5 4 9 8 9
5 0 9 -7 9 -15z m204 -40 c-5 -17 -6 -16 -9 8 -3 25 -16 36 -24 20 -3 -9 -68
-56 -68 -50 0 12 49 57 70 65 28 11 41 -7 31 -43z m164 25 c3 -5 -1 -10 -9
-10 -9 0 -16 5 -16 10 0 6 4 10 9 10 6 0 13 -4 16 -10z m375 -1 c0 -5 5 -7 10
-4 16 10 12 -21 -5 -35 -21 -17 -19 -40 6 -66 l20 -21 -25 -5 c-22 -5 -26 -2
-26 19 l0 25 -31 -26 c-17 -14 -34 -26 -39 -26 -11 0 -22 31 -14 39 4 3 9 0
11 -6 8 -22 26 -14 20 9 -9 33 27 108 52 108 12 0 21 -5 21 -11z m329 8 c-39
-29 -59 -36 -59 -23 0 14 17 22 49 25 8 0 12 0 10 -2z m-531 -23 c6 3 13 2 16
-3 9 -14 -20 -21 -34 -8 -10 9 -12 8 -7 -5 5 -13 1 -18 -14 -18 -14 0 -19 5
-17 18 2 9 10 16 16 15 7 -2 12 3 12 10 0 9 3 8 9 -2 5 -7 13 -11 19 -7z m267
6 c3 -5 1 -10 -4 -10 -6 0 -11 5 -11 10 0 6 2 10 4 10 3 0 8 -4 11 -10z m66
-48 c-5 -2 -7 -10 -4 -19 4 -11 3 -14 -6 -9 -26 16 -29 49 -7 67 20 17 21 17
24 -9 2 -15 -1 -28 -7 -30z m222 26 c-22 -37 -58 -45 -58 -13 0 13 8 21 23 23
12 2 22 8 22 13 0 5 7 9 16 9 14 0 13 -4 -3 -32z m-1233 10 c0 -5 -7 -8 -15
-4 -24 9 -17 -14 8 -24 21 -9 21 -9 2 -15 -17 -5 -20 -13 -17 -47 3 -29 1 -39
-7 -33 -7 4 -11 26 -10 51 2 24 -3 50 -9 56 -19 19 -14 25 18 26 17 0 30 -4
30 -10z m560 -9 c0 -11 -4 -17 -10 -14 -5 3 -10 13 -10 21 0 8 5 14 10 14 6 0
10 -9 10 -21z m-670 -21 c0 -6 -7 -5 -15 2 -8 7 -15 17 -15 22 0 6 7 5 15 -2
8 -7 15 -17 15 -22z m235 22 c-3 -5 -13 -10 -21 -10 -8 0 -12 5 -9 10 3 6 13
10 21 10 8 0 12 -4 9 -10z m60 -10 c-10 -11 -20 -18 -23 -15 -7 6 18 35 31 35
5 0 2 -9 -8 -20z m130 -18 c-4 -4 -10 -1 -12 6 -7 18 -23 15 -24 -5 0 -13 -2
-14 -6 -4 -3 8 3 20 13 28 15 11 19 11 27 -3 5 -8 6 -19 2 -22z m59 13 c-9
-14 -18 -25 -20 -25 -2 0 2 11 8 25 6 14 15 25 20 25 5 0 1 -11 -8 -25z m398
-20 c7 -7 8 -3 3 13 -5 16 -2 22 9 22 17 0 19 -13 8 -43 -7 -17 -9 -16 -29 3
-15 13 -20 26 -15 38 6 15 7 15 10 -3 2 -11 9 -24 14 -30z m304 33 c5 -8 2 -9
-10 -5 -15 6 -17 3 -11 -26 6 -29 5 -31 -9 -17 -9 9 -13 24 -10 38 7 24 28 29
40 10z m-1229 -35 c-3 -10 -5 -4 -5 12 0 17 2 24 5 18 2 -7 2 -21 0 -30z m374
10 c-5 -18 -15 -29 -29 -31 -28 -4 -28 7 1 35 30 29 37 28 28 -4z m178 10
c-12 -15 -12 -16 6 -10 17 6 17 4 -4 -13 -34 -29 -45 -24 -21 10 12 17 24 30
27 30 3 0 -1 -8 -8 -17z m567 -36 c-11 -54 -24 -60 -57 -23 -19 22 -27 40 -23
50 9 24 38 15 42 -12 2 -12 8 -20 13 -17 5 4 6 18 2 33 -6 25 -5 26 11 13 13
-11 16 -23 12 -44z m154 43 c0 -5 -2 -10 -4 -10 -3 0 -8 5 -11 10 -3 6 -1 10
4 10 6 0 11 -4 11 -10z m-1177 -37 c-9 -23 -20 -14 -15 13 3 17 7 22 12 13 5
-7 6 -18 3 -26z m780 6 c-4 -15 -8 -17 -14 -8 -8 14 -3 29 11 29 4 0 6 -9 3
-21z m407 -26 c0 -7 -4 -13 -10 -13 -5 0 -10 9 -10 20 0 11 -4 20 -10 20 -5 0
-10 -7 -10 -16 0 -8 -5 -12 -10 -9 -7 4 -6 13 1 26 10 20 11 20 30 3 10 -9 19
-23 19 -31z m27 15 c-3 -7 -5 -2 -5 12 0 14 2 19 5 13 2 -7 2 -19 0 -25z m145
2 c-5 -38 -22 -39 -23 -2 -1 15 -3 20 -6 10 -5 -21 -33 -32 -33 -13 0 16 27
34 51 35 12 0 14 -7 11 -30z m-1234 2 c-10 -2 -18 -8 -18 -13 0 -6 9 -8 19 -4
11 3 22 1 26 -5 4 -6 -9 -10 -35 -10 -37 0 -40 2 -30 19 11 22 30 31 45 22 6
-3 2 -7 -7 -9z m-251 -17 c1 -16 1 -16 -3 -2 -8 26 -25 20 -18 -7 3 -13 1 -27
-6 -31 -18 -11 -23 1 -15 35 8 35 38 39 42 5z m93 -17 c0 -15 -19 -8 -23 10
-3 10 -5 4 -6 -13 -1 -26 -3 -27 -12 -12 -6 9 -7 27 -4 38 6 19 8 20 26 3 10
-9 19 -21 19 -26z m349 -10 c1 -10 -3 -18 -8 -18 -10 0 -21 57 -12 66 6 6 19
-24 20 -48z m82 26 c17 -18 19 -23 6 -18 -9 3 -17 10 -17 15 0 5 -12 9 -26 9
-14 0 -23 4 -19 10 10 17 30 11 56 -16z m81 4 c-18 -18 -14 -32 4 -17 14 12
16 11 13 -6 -6 -30 -39 -32 -39 -3 0 24 19 52 29 43 2 -3 -1 -11 -7 -17z m148
-15 c0 -32 -5 -28 -14 10 -4 19 -3 26 4 22 5 -3 10 -18 10 -32z m105 14 c-8
-13 -13 -26 -9 -29 3 -3 2 -8 -3 -11 -4 -2 -17 5 -28 15 -20 20 -20 20 5 13
21 -7 23 -6 13 7 -15 17 -7 28 19 28 17 0 17 -2 3 -23z m535 9 c0 -11 -19 -15
-25 -6 -3 5 1 10 9 10 9 0 16 -2 16 -4z m-1029 -65 c-12 -21 -31 -21 -31 0 0
6 5 7 10 4 13 -8 13 -3 -1 32 l-10 28 21 -21 c18 -18 20 -25 11 -43z m369 28
c0 -21 -1 -22 -24 -13 -9 3 -16 12 -16 20 0 8 6 11 17 7 12 -5 14 -3 8 7 -5 9
-4 11 3 6 7 -4 12 -16 12 -27z m540 -11 c0 -13 -12 -9 -32 9 -19 17 -19 16
-12 -11 5 -21 4 -27 -5 -22 -6 4 -11 21 -11 37 l0 30 30 -18 c17 -9 30 -21 30
-25z m-1237 13 c3 -13 1 -18 -9 -14 -7 2 -10 11 -7 19 7 19 10 18 16 -5z m363
-18 c-11 -11 -17 4 -9 23 7 18 8 18 11 1 2 -10 1 -21 -2 -24z m104 27 c0 -5
-9 -10 -21 -10 -11 0 -17 5 -14 10 3 6 13 10 21 10 8 0 14 -4 14 -10z m70 0
c0 -5 -2 -10 -4 -10 -3 0 -8 5 -11 10 -3 6 -1 10 4 10 6 0 11 -4 11 -10z m323
-29 c-4 -17 -8 -19 -14 -9 -12 19 -11 30 3 22 8 -5 9 -1 4 12 -5 13 -4 16 3 9
6 -6 8 -21 4 -34z m282 29 c3 -5 2 -10 -4 -10 -5 0 -13 5 -16 10 -3 6 -2 10 4
10 5 0 13 -4 16 -10z m185 -10 c0 -11 -2 -20 -4 -20 -2 0 -6 9 -9 20 -3 11 -1
20 4 20 5 0 9 -9 9 -20z m70 -31 c0 -4 -7 -12 -15 -19 -13 -11 -15 -7 -16 21
-2 31 -2 31 -6 7 -2 -16 -8 -28 -12 -28 -18 0 -19 15 -3 42 l17 28 17 -22 c10
-13 18 -26 18 -29z m-1300 5 c0 -17 -20 -19 -20 -1 -1 7 -6 5 -14 -6 -8 -11
-17 -14 -20 -8 -7 11 33 43 46 35 4 -3 8 -12 8 -20z m100 22 c0 -2 -7 -9 -15
-16 -12 -10 -15 -10 -15 4 0 9 7 16 15 16 8 0 15 -2 15 -4z m50 -11 c0 -8 -11
-17 -25 -21 -33 -8 -40 -1 -18 17 11 9 14 10 9 2 -4 -7 -2 -13 4 -13 6 0 13 7
16 15 8 19 14 19 14 0z m666 4 c3 -6 2 -15 -4 -21 -7 -7 -14 -3 -21 11 -10 17
-9 21 3 21 8 0 18 -5 22 -11z m391 -11 c-3 -8 -6 -5 -6 6 -1 11 2 17 5 13 3
-3 4 -12 1 -19z m123 -5 c0 -22 -2 -25 -10 -13 -13 20 -13 40 0 40 6 0 10 -12
10 -27z m-948 5 c-5 -7 -12 -31 -14 -53 -3 -22 -8 -48 -12 -58 -6 -13 -5 -16
8 -11 12 5 16 0 16 -20 0 -14 5 -26 10 -26 6 0 10 6 10 14 0 17 42 29 51 14 4
-6 5 -17 2 -25 -3 -7 0 -13 6 -13 6 0 11 6 11 13 0 13 39 41 47 34 8 -9 -20
-46 -39 -50 -10 -3 -18 -10 -18 -17 0 -7 8 -9 20 -5 19 6 27 -5 14 -18 -4 -3
-37 10 -75 29 -78 39 -86 53 -75 136 8 61 12 68 33 68 11 0 13 -4 5 -12z m506
-45 c-18 -17 -42 -8 -34 13 3 8 1 14 -4 14 -6 0 -10 -8 -10 -17 0 -12 -3 -14
-11 -6 -15 15 -3 33 21 33 10 0 22 5 26 12 5 8 11 5 17 -11 8 -16 7 -26 -5
-38z m178 45 c5 -8 2 -9 -9 -5 -20 7 -23 -8 -4 -17 6 -3 3 -5 -8 -3 -27 3 -33
37 -6 37 11 0 23 -5 27 -12z m-1278 -28 c0 -17 -4 -28 -9 -25 -10 7 -12 38 -2
48 10 10 10 10 11 -23z m136 10 c4 -5 5 -13 1 -20 -5 -8 -11 -6 -19 6 -7 9
-18 14 -24 10 -7 -4 -12 -1 -12 9 0 12 6 15 23 10 12 -4 26 -11 31 -15z m486
1 c-15 -28 -13 -33 10 -21 28 15 26 -5 -2 -24 -12 -9 -25 -16 -29 -16 -8 0 -4
53 5 68 13 21 28 14 16 -7z m544 -5 c-3 -9 -10 -16 -15 -16 -5 0 -4 9 3 20 14
22 21 20 12 -4z m75 -14 c15 -12 15 -14 -2 -27 -23 -17 -71 0 -62 23 3 7 5 19
6 25 0 7 4 3 9 -8 8 -19 9 -19 16 5 5 16 9 20 12 10 2 -8 12 -21 21 -28z
m-719 12 c0 -9 -5 -14 -12 -12 -18 6 -21 28 -4 28 9 0 16 -7 16 -16z m292 -24
c-3 -39 -6 -45 -21 -35 -6 3 -11 22 -11 41 0 29 3 35 18 32 13 -3 16 -12 14
-38z m101 33 c8 -7 -21 -43 -34 -43 -7 0 -7 24 0 48 2 5 28 2 34 -5z m81 -9
c3 -8 2 -12 -4 -9 -6 3 -10 10 -10 16 0 14 7 11 14 -7z m426 -21 c0 -6 -4 -15
-10 -18 -5 -3 -10 3 -10 15 0 12 -4 18 -10 15 -5 -3 -10 1 -10 9 0 14 3 14 20
4 11 -7 20 -18 20 -25z m-460 6 c0 -6 -4 -7 -10 -4 -5 3 -10 11 -10 16 0 6 5
7 10 4 6 -3 10 -11 10 -16z m375 1 c-10 -11 -15 -23 -12 -26 4 -4 9 1 13 10 8
20 24 21 24 1 0 -12 -36 -35 -54 -35 -8 0 8 56 18 62 22 15 29 8 11 -12z
m-1270 0 c3 -6 -1 -7 -10 -4 -11 5 -14 2 -9 -10 3 -9 1 -16 -5 -16 -6 0 -11 9
-11 20 0 21 24 28 35 10z m1223 -4 c-19 -14 -25 -32 -8 -21 6 3 10 0 10 -8 0
-10 -7 -13 -20 -10 -11 3 -20 8 -20 11 0 11 33 42 44 42 6 0 3 -7 -6 -14z
m282 -7 c0 -5 -4 -9 -8 -9 -5 0 -9 7 -9 15 0 8 4 12 9 9 4 -3 8 -9 8 -15z
m-1135 1 c3 -5 1 -10 -5 -10 -6 0 -8 -5 -5 -11 4 -6 21 -9 38 -7 30 3 32 1 35
-35 3 -36 2 -38 -20 -31 -50 15 -69 35 -66 70 2 34 11 43 23 24z m35 -11 c0
-5 -7 -9 -15 -9 -9 0 -12 6 -9 15 6 15 24 11 24 -6z m481 -45 c6 -7 3 -16 -6
-24 -26 -22 -17 -33 21 -27 l37 6 -23 -24 c-12 -13 -35 -27 -51 -30 -16 -4
-31 -11 -34 -16 -12 -18 -24 -8 -34 29 -6 20 -11 50 -11 65 0 26 2 28 35 21
36 -6 50 8 19 20 -15 6 -15 8 2 27 l18 21 10 -29 c5 -15 13 -33 17 -39z m589
63 c0 -2 -9 -12 -20 -22 -17 -16 -20 -16 -20 -2 0 8 8 18 18 20 9 3 18 5 20 6
1 0 2 -1 2 -2z m91 -10 c-1 -4 -1 -14 -1 -22 0 -9 -6 -12 -16 -8 -13 5 -13 8
-2 15 9 7 5 8 -12 4 -24 -5 -24 -4 -5 10 19 14 37 15 36 1z m-1456 -7 c-3 -5
-10 -10 -16 -10 -5 0 -9 5 -9 10 0 6 7 10 16 10 8 0 12 -4 9 -10z m98 3 c-7
-2 -19 -2 -25 0 -7 3 -2 5 12 5 14 0 19 -2 13 -5z m728 -37 c5 -6 9 -16 9 -24
0 -12 -3 -12 -15 -2 -8 7 -14 27 -14 44 1 21 3 24 6 11 3 -11 9 -24 14 -29z
m159 28 c0 -2 -9 -4 -21 -4 -11 0 -18 4 -14 10 5 8 35 3 35 -6z m230 -10 c0
-8 -4 -12 -10 -9 -5 3 -10 13 -10 21 0 8 5 12 10 9 6 -3 10 -13 10 -21z
m-1392 -12 c2 -6 -5 -8 -19 -5 -18 5 -21 3 -16 -10 4 -10 2 -17 -4 -17 -13 0
-22 27 -15 45 6 16 47 7 54 -13z m222 -21 c-12 -23 -40 -29 -40 -9 0 6 10 23
23 36 17 19 23 21 25 8 2 -8 -2 -24 -8 -35z m743 29 c3 -11 1 -18 -4 -14 -5 3
-9 12 -9 20 0 20 7 17 13 -6z m66 -6 c3 -16 1 -17 -13 -5 -19 16 -21 34 -3 29
6 -3 14 -13 16 -24z m-999 -5 c0 -6 -4 -7 -10 -4 -5 3 -10 11 -10 16 0 6 5 7
10 4 6 -3 10 -11 10 -16z m63 -29 c1 -19 -3 -35 -10 -37 -9 -3 -13 6 -13 27 0
18 -4 29 -10 25 -5 -3 -10 -15 -10 -26 0 -11 -4 -17 -10 -14 -16 10 -12 29 11
54 26 27 40 17 42 -29z m225 36 c-2 -1 -10 -7 -18 -13 -13 -10 -16 -8 -16 6 0
13 6 17 19 13 10 -2 16 -5 15 -6z m373 -17 c7 -23 7 -22 8 6 1 27 3 28 12 11
9 -14 7 -22 -9 -38 l-20 -20 -17 25 c-17 27 -12 51 8 44 6 -2 14 -14 18 -28z
m389 10 c-7 -11 -14 -18 -17 -15 -8 8 5 36 17 36 7 0 7 -6 0 -21z m96 -6 c-31
-16 -67 -14 -73 4 -3 7 10 13 34 15 56 5 71 -3 39 -19z m304 17 c0 -5 -5 -10
-11 -10 -5 0 -7 5 -4 10 3 6 8 10 11 10 2 0 4 -4 4 -10z m64 -1 c-3 -6 1 -10
12 -9 43 5 49 0 24 -20 -39 -31 -80 -24 -48 8 9 9 9 12 -2 12 -13 0 -13 2 0
10 19 13 23 12 14 -1z m-1395 -2 c-2 -1 -12 -9 -21 -16 -15 -12 -18 -11 -18 3
0 10 8 16 22 16 12 0 19 -1 17 -3z m1531 -6 c0 -6 -5 -13 -12 -17 -6 -4 -8 -3
-4 4 3 6 -2 13 -11 15 -14 4 -13 5 5 6 12 0 22 -3 22 -8z m-1400 -48 c0 -22
-18 -15 -23 10 -3 17 -5 16 -6 -7 -1 -21 -4 -27 -12 -19 -5 5 -7 22 -3 37 6
26 7 26 25 10 11 -9 19 -23 19 -31z m351 38 c7 11 9 11 9 -2 0 -16 -28 -34
-38 -25 -2 3 -1 13 3 23 5 14 9 15 12 4 5 -11 7 -11 14 0z m694 -31 c-14 -22
-25 -44 -25 -49 0 -12 -37 -24 -50 -16 -5 3 -10 14 -10 24 0 22 23 44 34 33 4
-4 12 1 18 11 8 15 33 31 56 36 1 1 -9 -17 -23 -39z m-1160 9 c-4 -5 -13 -9
-22 -9 -13 0 -13 3 -3 15 13 15 35 11 25 -6z m210 -6 c29 -33 31 -43 8 -43
-10 0 -24 12 -30 27 -24 50 -14 57 22 16z m983 7 c-7 -10 -14 -17 -17 -15 -4
4 18 35 25 35 2 0 -1 -9 -8 -20z m-1011 -48 c-4 -25 -22 -17 -28 13 -4 17 -7
24 -8 16 0 -8 -4 -12 -7 -8 -4 3 -3 14 0 24 7 16 9 15 27 -7 10 -14 18 -31 16
-38z m877 42 c9 -24 2 -26 -12 -4 -7 11 -8 20 -3 20 5 0 12 -7 15 -16z m434
-5 c-19 -13 -68 -11 -68 2 0 7 10 9 25 5 14 -4 25 -2 25 3 0 6 7 8 16 4 13 -5
13 -7 2 -14z m-678 7 c0 -2 -8 -10 -17 -17 -16 -13 -17 -12 -4 4 13 16 21 21
21 13z m215 -6 c3 -5 -3 -10 -14 -10 -12 0 -21 5 -21 10 0 6 6 10 14 10 8 0
18 -4 21 -10z m313 -30 c2 -18 -1 -37 -7 -43 -6 -6 -9 2 -6 27 1 20 -1 36 -6
36 -5 0 -9 5 -9 11 0 26 25 -1 28 -31z m-385 10 c4 0 5 5 2 10 -3 6 1 10 9 10
9 0 16 -9 16 -20 0 -22 -3 -23 -37 -14 -13 4 -23 13 -23 22 0 12 3 13 12 4 7
-7 16 -12 21 -12z m341 5 c3 -8 2 -23 -1 -32 -6 -15 -7 -15 -14 3 -11 27 -11
44 0 44 5 0 11 -7 15 -15z m119 -18 c-16 -10 -43 -2 -43 12 0 14 33 18 46 6 9
-7 8 -12 -3 -18z m-1572 1 c14 -22 -9 -33 -29 -15 -26 23 -39 21 -18 -2 19
-21 14 -41 -8 -41 -14 0 -26 30 -26 64 0 16 5 18 37 13 20 -4 40 -12 44 -19z
m-106 3 c3 -5 1 -12 -5 -16 -5 -3 -10 1 -10 9 0 18 6 21 15 7z m285 -16 c15
-27 9 -41 -13 -32 -18 7 -29 57 -12 57 6 0 18 -11 25 -25z m34 10 c3 -8 2 -15
-3 -15 -5 0 -14 7 -21 15 -10 12 -10 15 3 15 8 0 17 -7 21 -15z m1210 -1 c5
-14 4 -15 -9 -4 -17 14 -19 20 -6 20 5 0 12 -7 15 -16z m-1373 -11 c13 -17 13
-17 -5 -3 -18 14 -18 13 -12 -8 5 -13 3 -22 -3 -22 -6 0 -11 11 -11 25 0 29
12 32 31 8z m79 6 c0 -6 -7 -9 -15 -5 -20 7 -19 -4 2 -20 10 -7 14 -16 10 -20
-12 -12 -41 22 -34 40 7 18 37 22 37 5z m603 -6 c-20 -7 -15 -20 10 -28 15 -4
18 -8 9 -12 -8 -3 -21 2 -30 10 -13 13 -13 19 -2 32 7 8 16 13 19 9 3 -4 0 -9
-6 -11z m347 -4 c0 -5 -4 -9 -10 -9 -5 0 -10 7 -10 16 0 8 5 12 10 9 6 -3 10
-10 10 -16z m235 -10 c-9 -17 -19 -28 -22 -25 -6 6 23 56 32 56 3 0 -2 -14
-10 -31z m73 1 c-16 -24 -31 -15 -18 11 6 11 15 17 20 14 6 -4 5 -14 -2 -25z
m262 6 c0 -14 -5 -37 -10 -51 -9 -23 -13 -25 -26 -14 -10 8 -13 22 -9 43 l6
31 -20 -25 -21 -25 0 23 c0 14 8 26 23 32 40 16 57 12 57 -14z m-1151 -26 l43
-11 -23 -25 c-19 -21 -25 -22 -38 -10 -9 7 -33 16 -53 20 -37 7 -44 18 -32 50
5 13 9 14 32 2 15 -8 47 -19 71 -26z m1051 18 c0 -5 -4 -6 -10 -3 -5 3 -10 -1
-10 -10 0 -12 5 -15 18 -10 13 5 14 4 5 -6 -17 -17 -43 5 -36 31 5 19 33 17
33 -2z m-1272 -13 c4 -20 3 -20 -11 -1 -7 10 -19 16 -25 12 -7 -4 -12 -2 -12
4 0 20 45 6 48 -15z m832 10 c0 -8 -13 -21 -30 -30 -37 -19 -38 -12 -4 20 31
29 34 30 34 10z m98 1 c-10 -7 -18 -21 -18 -30 0 -9 -7 -16 -15 -16 -22 0 -18
27 7 44 27 19 50 21 26 2z m-1298 -11 c0 -8 -6 -15 -14 -15 -8 0 -18 -5 -22
-12 -5 -8 -1 -9 12 -4 14 5 16 4 7 -4 -7 -8 -17 -9 -28 -3 -15 9 -14 12 10 31
33 26 35 26 35 7z m453 5 c-13 -5 -23 -15 -23 -21 0 -7 -3 -9 -6 -6 -10 10 16
37 35 36 11 0 9 -3 -6 -9z m1317 -10 c-8 -5 -17 -7 -19 -4 -3 3 1 9 9 14 8 5
17 7 19 4 3 -3 -1 -9 -9 -14z m-1650 -42 c0 -5 -7 -8 -15 -8 -10 0 -15 10 -15
33 l1 32 14 -25 c8 -14 14 -28 15 -32z m1387 46 c-3 -3 -12 -4 -19 -1 -8 3 -5
6 6 6 11 1 17 -2 13 -5z m43 -5 c13 -9 13 -10 -2 -5 -10 3 -18 -1 -21 -12 -3
-12 -5 -11 -6 6 -1 24 6 27 29 11z m-1086 -31 c-9 -14 -23 2 -17 18 4 12 8 13
14 3 4 -7 5 -17 3 -21z m896 23 c0 -24 -14 -41 -33 -41 -16 0 -18 3 -9 12 19
19 14 30 -8 18 -19 -10 -28 -1 -13 13 10 10 63 8 63 -2z m-1216 -16 c-4 -8 -8
-15 -10 -15 -2 0 -4 7 -4 15 0 8 4 15 10 15 5 0 7 -7 4 -15z m51 6 c3 -5 1
-12 -5 -16 -5 -3 -10 1 -10 9 0 18 6 21 15 7z m55 0 c0 -5 -9 -11 -20 -14 -20
-5 -28 -27 -10 -27 6 0 10 5 10 10 0 6 7 10 15 10 8 0 15 -7 15 -15 0 -11 -11
-15 -36 -15 -37 0 -38 6 -6 43 16 18 32 23 32 8z m40 -7 c0 -8 -5 -12 -10 -9
-6 4 -8 11 -5 16 9 14 15 11 15 -7z m512 -6 c-7 -7 -12 -8 -12 -2 0 14 12 26
19 19 2 -3 -1 -11 -7 -17z m781 15 c-7 -2 -13 -11 -13 -19 0 -8 -4 -14 -10
-14 -5 0 -10 4 -10 8 0 12 22 32 35 31 5 0 4 -3 -2 -6z m-1246 -9 c-3 -3 -12
-4 -19 -1 -8 3 -5 6 6 6 11 1 17 -2 13 -5z m341 -22 c4 -27 -14 -29 -28 -3
-14 27 -13 33 8 29 9 -2 18 -13 20 -26z m802 -52 c0 -5 -5 -12 -12 -16 -8 -5
-9 -2 -5 9 8 22 -2 22 -19 0 -7 -10 -16 -15 -20 -11 -4 5 1 18 12 29 14 16 15
23 7 26 -7 3 -13 14 -13 25 0 17 5 13 25 -16 14 -20 25 -41 25 -46z m272 58
c-7 -7 -12 -8 -12 -2 0 6 3 14 7 17 3 4 9 5 12 2 2 -3 -1 -11 -7 -17z m-1732
4 c0 -4 12 -8 27 -7 14 0 28 -6 30 -13 4 -9 -9 -12 -46 -11 -45 2 -49 4 -40
21 10 18 29 25 29 10z m803 -9 c-6 -16 -5 -17 11 -3 17 13 18 13 15 -4 -2 -11
-9 -21 -15 -23 -13 -4 -27 24 -18 38 9 15 14 10 7 -8z m802 8 c3 -5 1 -12 -5
-16 -5 -3 -10 1 -10 9 0 18 6 21 15 7z m-1210 -10 c3 -6 -1 -13 -8 -18 -7 -4
-21 -19 -30 -32 l-16 -24 -7 28 c-5 21 -2 31 11 42 22 15 41 17 50 4z m129 -1
c14 -5 26 -16 26 -25 0 -19 -19 -20 -26 0 -9 22 -26 18 -19 -4 3 -11 1 -22 -5
-26 -6 -3 -8 -10 -5 -15 9 -14 -23 -32 -45 -25 -20 6 -20 8 -5 25 9 10 23 16
30 13 11 -4 13 3 8 31 -6 39 -1 42 41 26z m105 -31 c11 -25 21 -36 24 -27 4 9
6 7 6 -4 1 -21 0 -21 -33 -9 -18 8 -23 15 -19 31 4 16 2 19 -11 14 -9 -3 -17
-14 -17 -23 -1 -13 -2 -13 -6 2 -4 15 21 57 34 57 2 0 12 -18 22 -41z m77 19
c17 -19 17 -21 2 -15 -21 7 -24 -3 -6 -21 9 -9 7 -12 -10 -12 -18 0 -22 6 -22
35 0 40 9 44 36 13z m805 5 c13 -17 13 -17 -5 -3 -18 14 -19 13 -13 -2 3 -10
2 -18 -3 -18 -6 0 -10 9 -10 20 0 25 13 26 31 3z m-398 -15 c29 0 37 -4 37
-18 0 -11 -5 -22 -11 -26 -7 -4 -9 -21 -5 -44 6 -36 5 -37 -37 -51 -23 -7 -63
-24 -89 -36 -75 -36 -78 -34 -78 53 0 73 1 77 32 106 28 26 37 29 72 23 23 -3
58 -6 79 -7z m76 -5 c1 22 21 22 21 -1 0 -9 -9 -23 -19 -29 -17 -11 -21 -9
-26 7 -9 28 6 50 16 24 7 -17 8 -17 8 -1z m96 7 c-3 -5 -11 -10 -16 -10 -6 0
-7 5 -4 10 3 6 11 10 16 10 6 0 7 -4 4 -10z m398 -20 c4 0 4 7 1 15 -7 16 4
19 24 7 7 -5 10 -16 7 -24 -9 -22 -59 -8 -63 18 -3 18 -2 18 11 2 8 -10 17
-18 20 -18z m120 15 c-3 -9 -8 -14 -10 -11 -3 3 -2 9 2 15 9 16 15 13 8 -4z
m67 6 c0 -6 -5 -13 -12 -17 -6 -4 -8 -3 -4 4 3 5 0 13 -6 15 -8 3 -6 6 5 6 9
1 17 -3 17 -8z m-1468 -13 c-21 -21 -13 -29 13 -12 22 15 25 15 25 1 0 -19 -5
-23 -47 -32 -18 -3 -33 -3 -33 2 0 11 38 53 47 53 4 0 2 -5 -5 -12z m996 -8
c-7 -11 -16 -20 -21 -20 -4 0 -3 9 3 20 6 11 15 20 20 20 6 0 5 -9 -2 -20z
m-1232 -5 c-11 -8 -22 -12 -25 -9 -6 6 19 24 34 24 6 -1 1 -7 -9 -15z m46 3
c-17 -17 -15 -31 3 -24 8 3 15 1 15 -4 0 -13 -37 -13 -45 -1 -5 9 20 41 33 41
3 0 1 -5 -6 -12z m64 -15 c-6 -25 -5 -26 7 -10 8 9 19 17 26 17 20 0 11 -25
-19 -48 l-29 -23 -6 35 c-7 36 -1 56 17 56 6 0 8 -11 4 -27z m1274 7 c0 -22
-34 -29 -45 -9 -11 17 3 23 22 8 15 -12 16 -12 10 4 -3 9 -2 17 3 17 6 0 10
-9 10 -20z m280 10 c0 -5 -4 -10 -10 -10 -5 0 -10 5 -10 10 0 6 5 10 10 10 6
0 10 -4 10 -10z m-1270 -31 c0 -13 -4 -18 -12 -13 -8 5 -9 1 -4 -12 5 -14 4
-16 -4 -8 -9 9 -8 17 2 33 16 26 18 26 18 0z m194 5 c5 -14 4 -15 -9 -4 -17
14 -19 20 -6 20 5 0 12 -7 15 -16z m485 -1 c1 19 31 24 31 4 0 -16 -20 -37
-36 -37 -13 0 -25 35 -16 45 4 3 10 -2 13 -12 7 -17 8 -17 8 0z m611 -10 c0
-31 -16 -45 -46 -41 l-29 3 23 23 c24 24 21 28 -9 12 -15 -8 -19 -7 -19 5 0
11 11 15 40 15 31 0 40 -4 40 -17z m-1670 -13 c8 -14 8 -26 0 -40 -15 -28 -33
-25 -28 5 5 26 -6 35 -15 13 -3 -7 -6 -4 -6 8 -2 38 31 48 49 14z m556 5 c2
-5 -12 -18 -31 -27 l-35 -18 15 31 c15 29 44 37 51 14z m449 -24 c-20 -40 -35
-39 -34 2 1 28 2 29 8 8 l6 -24 13 28 c7 15 15 25 18 22 3 -3 -2 -19 -11 -36z
m-1144 5 c-6 -7 -8 -16 -4 -19 3 -4 0 -7 -9 -7 -24 0 -29 12 -12 31 18 20 41
15 25 -5z m369 4 c0 -23 -22 -26 -39 -6 -10 12 -8 15 11 19 13 2 24 5 26 6 1
0 2 -8 2 -19z m1064 4 c9 -24 8 -28 -14 -42 -18 -11 -19 -10 -9 14 5 15 8 29
5 31 -2 3 -7 -5 -11 -16 -7 -23 -25 -29 -25 -8 0 32 43 49 54 21z m442 2 c18
-14 18 -15 -9 -25 -35 -14 -47 -14 -47 -1 0 6 8 11 18 11 16 1 16 2 -1 6 -9 2
-15 9 -12 14 9 13 28 11 51 -5z m-1928 -43 c4 -16 2 -16 -12 2 -16 19 -16 19
-10 -6 4 -19 1 -26 -10 -26 -11 0 -16 9 -16 27 0 14 -6 32 -12 39 -9 8 -2 8
22 -3 19 -8 37 -22 38 -33z m257 37 c3 -6 -1 -7 -9 -4 -21 8 -20 -6 2 -22 13
-10 14 -15 5 -25 -17 -17 -43 6 -43 37 0 17 6 24 19 24 11 0 23 -4 26 -10z
m281 -17 c3 -16 8 -34 10 -42 4 -11 -1 -10 -15 3 -11 10 -17 24 -14 32 4 10 0
12 -13 7 -17 -6 -17 -5 -5 10 19 24 30 21 37 -10z m82 15 c16 -16 15 -43 -2
-57 -12 -10 -15 -7 -19 21 -4 30 -5 31 -12 11 -8 -24 -25 -31 -25 -11 0 12 29
48 40 48 3 0 11 -5 18 -12z m166 -3 c-18 -14 -18 -15 5 -12 13 1 26 -4 29 -12
3 -10 -3 -11 -29 -6 -19 4 -36 9 -38 11 -8 7 22 34 37 34 13 0 12 -3 -4 -15z
m-424 -32 c0 -26 -4 -33 -19 -33 -27 0 -54 39 -40 57 6 7 22 12 35 11 20 -2
24 -8 24 -35z m123 9 c23 -20 22 -42 -3 -42 -12 0 -20 7 -21 18 -1 16 -2 16
-6 0 -2 -10 -9 -18 -15 -18 -6 0 -8 10 -4 23 3 12 6 28 6 35 0 14 13 9 43 -16z
m1047 14 c0 -2 -7 -6 -15 -10 -8 -3 -15 -1 -15 4 0 6 7 10 15 10 8 0 15 -2 15
-4z m15 -15 c-3 -6 -11 -11 -16 -11 -5 0 -4 6 3 14 14 16 24 13 13 -3z m75 4
c-7 -8 -23 -14 -36 -13 -45 4 -23 21 35 27 11 1 11 -2 1 -14z m64 -13 c2 -4
-7 -12 -20 -19 -22 -10 -24 -9 -24 18 0 26 2 29 19 19 11 -5 22 -14 25 -18z
m-1592 -4 c-7 -7 -12 -8 -12 -2 0 14 12 26 19 19 2 -3 -1 -11 -7 -17z m326
-14 c3 -18 2 -18 -11 -1 -17 21 -28 22 -21 2 4 -8 1 -15 -5 -15 -6 0 -11 11
-11 25 0 21 3 23 23 16 12 -5 23 -17 25 -27z m932 26 c0 -5 -9 -10 -21 -10
-11 0 -17 5 -14 10 3 6 13 10 21 10 8 0 14 -4 14 -10z m477 -20 c3 -11 13 -20
22 -20 9 0 23 -5 31 -10 13 -9 13 -11 0 -20 -8 -5 -26 -9 -40 -8 -23 1 -24 1
-2 5 27 5 29 19 2 26 -13 3 -25 -2 -35 -16 -8 -12 -15 -19 -16 -17 -7 50 -6
66 4 72 19 12 29 9 34 -12z m-1757 -19 c0 -29 -25 -60 -37 -47 -4 4 -2 16 5
26 14 23 0 27 -18 5 -12 -15 -30 -12 -30 5 0 11 49 39 68 40 7 0 12 -12 12
-29z m630 -6 c0 -31 -19 -55 -44 -55 -16 0 -3 41 15 50 11 7 18 14 16 17 -7 6
-50 -16 -59 -31 -6 -8 -8 -8 -8 0 0 18 43 50 73 53 4 1 7 -15 7 -34z m738 5
l3 -25 -16 23 c-12 17 -20 20 -29 13 -13 -11 -26 -5 -26 11 0 5 15 8 33 6 26
-2 33 -8 35 -28z m86 18 c20 -9 23 -14 15 -25 -6 -7 -21 -13 -33 -12 -21 0
-21 0 2 9 32 13 27 21 -8 14 -18 -4 -30 -2 -30 4 0 9 5 13 27 21 1 1 13 -4 27
-11z m216 -3 c0 -8 -4 -15 -10 -15 -5 0 -10 7 -10 15 0 8 5 15 10 15 6 0 10
-7 10 -15z m32 -10 c3 -14 1 -25 -3 -25 -5 0 -9 11 -9 25 0 14 2 25 4 25 2 0
6 -11 8 -25z m134 10 c19 -14 19 -14 -2 -15 -12 0 -24 7 -28 15 -7 19 5 19 30
0z m-1972 -26 c-8 -13 -24 -1 -24 18 0 13 3 13 15 3 8 -7 12 -16 9 -21z m211
19 c23 -11 24 -12 9 -29 -13 -15 -21 -16 -37 -8 -16 9 -17 13 -6 20 11 7 10 9
-4 9 -10 0 -15 5 -12 10 8 13 18 13 50 -2z m639 -10 c-4 -13 -9 -29 -11 -35
-3 -7 -1 -13 4 -13 5 0 15 6 22 13 11 10 12 2 7 -47 -8 -75 -17 -93 -35 -72
-8 9 -20 16 -27 16 -17 0 -19 43 -4 71 13 23 3 25 -20 4 -16 -14 -18 -14 -23
-1 -4 9 -2 18 3 21 6 4 10 19 10 36 0 27 2 29 41 29 37 0 40 -2 33 -22z m36 8
c0 -8 -4 -18 -10 -21 -5 -3 -10 3 -10 14 0 12 5 21 10 21 6 0 10 -6 10 -14z
m535 4 c3 -5 2 -10 -4 -10 -5 0 -13 5 -16 10 -3 6 -2 10 4 10 5 0 13 -4 16
-10z m273 -13 c2 -9 -1 -17 -7 -17 -6 0 -8 8 -4 18 5 14 3 15 -8 5 -15 -15
-39 -17 -39 -4 0 10 28 20 45 16 6 -1 11 -9 13 -18z m-1404 7 c24 -9 21 -61
-4 -74 -15 -8 -20 -8 -20 1 0 7 -7 21 -16 31 -16 16 -15 18 0 24 14 5 15 9 4
15 -10 7 -9 9 4 9 9 0 23 -3 32 -6z m78 -11 c19 -17 24 -58 8 -68 -5 -3 -7 0
-5 7 3 8 -2 22 -11 33 -15 20 -15 19 -10 -3 7 -35 -3 -52 -32 -52 -32 0 -24
-9 11 -12 21 -2 24 -5 16 -20 -14 -26 -44 -22 -57 7 -10 21 -9 26 8 35 10 5
27 10 36 10 16 0 16 1 -1 14 -17 12 -18 18 -7 40 14 30 19 32 44 9z m1024 2
c13 -13 13 -15 1 -15 -8 0 -20 7 -27 15 -9 11 -10 15 -1 15 7 0 19 -7 27 -15z
m364 12 c0 -2 -10 -12 -21 -23 -22 -19 -22 -19 -10 4 10 18 31 31 31 19z
m-391 -30 c19 -21 20 -25 6 -37 -8 -7 -15 -24 -15 -38 0 -20 3 -23 12 -14 14
14 58 16 58 3 0 -4 -5 -22 -11 -40 -11 -31 -13 -32 -53 -26 -22 4 -51 13 -64
21 -22 15 -78 91 -71 98 7 6 104 55 110 56 3 0 15 -11 28 -23z m-769 -19 c0
-17 -3 -28 -7 -24 -11 10 -11 56 -1 56 4 0 8 -14 8 -32z m51 22 c10 -6 19 -18
19 -27 0 -14 -3 -14 -21 3 -20 18 -20 18 -13 -10 5 -22 4 -28 -7 -24 -17 6
-25 68 -9 68 6 0 20 -5 31 -10z m797 -1 c-10 -5 -18 -15 -18 -21 0 -9 3 -9 12
0 18 18 38 14 38 -7 0 -20 -25 -31 -73 -31 l-27 0 22 35 c14 21 31 35 43 35
18 -1 19 -1 3 -11z m384 -31 c-8 -34 -29 -41 -52 -18 -22 22 -23 41 -2 48 7 2
10 -2 6 -11 -3 -8 -1 -18 5 -22 6 -3 11 2 11 13 0 10 3 21 6 25 11 10 31 -17
26 -35z m-1800 19 c-12 -7 -20 -16 -16 -20 4 -4 13 -2 20 4 19 15 38 1 23 -17
-14 -17 -40 -18 -74 -2 l-25 11 27 18 c16 10 37 18 48 18 18 0 18 -1 -3 -12z
m448 -2 c0 -18 -21 -20 -38 -3 -9 9 -12 9 -12 0 0 -6 8 -16 18 -21 15 -9 15
-10 1 -11 -16 0 -29 19 -29 41 0 5 14 9 30 9 20 0 30 -5 30 -15z m90 5 c0 -5
-7 -7 -15 -4 -8 4 -15 8 -15 10 0 2 7 4 15 4 8 0 15 -4 15 -10z m992 -7 c17
-16 17 -17 -13 -35 -28 -17 -34 -18 -47 -5 -21 22 -5 40 29 33 35 -7 38 1 7
14 -13 5 -17 9 -9 9 8 1 23 -6 33 -16z m137 0 c10 -8 -37 -58 -58 -61 -27 -4
-28 14 -1 21 11 3 20 10 20 16 0 8 -6 9 -17 3 -22 -11 -43 -5 -43 13 0 7 6 15
13 18 12 4 78 -3 86 -10z m-1169 -26 c0 -5 -4 -5 -10 -2 -5 3 -10 14 -10 23 0
15 2 15 10 2 5 -8 10 -19 10 -23z m-340 14 c0 -5 3 -22 6 -39 6 -31 6 -31 -20
-19 -29 13 -36 40 -8 31 16 -5 16 -5 0 9 -10 8 -15 17 -11 20 9 10 33 8 33 -2z
m-249 -11 c5 0 9 -4 9 -10 0 -5 -8 -6 -17 -3 -15 6 -16 4 -5 -9 8 -10 9 -18 3
-22 -6 -4 -15 2 -20 13 -16 28 -13 44 5 37 9 -3 20 -6 25 -6z m320 -22 c7 -26
5 -28 -22 -28 -20 0 -29 5 -29 16 0 10 6 14 15 10 20 -7 19 4 -2 21 -17 12
-16 13 6 11 17 -2 27 -11 32 -30z m1488 8 c21 -23 22 -24 2 -29 -13 -3 -18 -1
-15 8 3 7 -2 20 -11 29 -9 9 -12 16 -7 16 4 0 19 -11 31 -24z m125 -43 c3 -4
6 11 6 31 0 26 4 36 13 34 18 -7 21 -37 7 -64 -22 -41 -69 3 -53 50 6 18 7 17
14 -12 4 -18 9 -36 13 -39z m-1751 -7 l-20 -25 -22 20 c-23 22 -25 49 -4 56 7
3 15 -7 19 -21 3 -14 10 -23 15 -20 5 3 7 10 3 15 -3 6 -3 18 1 27 6 15 8 14
17 -5 8 -17 6 -27 -9 -47z m597 7 c0 -18 -4 -33 -10 -33 -5 0 -10 11 -10 25 0
14 -4 25 -10 25 -5 0 -10 -12 -10 -26 0 -14 -4 -23 -10 -19 -16 10 -12 30 11
59 25 32 39 21 39 -31z m1241 25 c4 -16 3 -28 -2 -28 -5 0 -9 7 -9 15 0 8 -4
15 -9 15 -5 0 -12 7 -15 16 -4 11 -1 14 11 12 9 -2 20 -15 24 -30z m-1541 -3
c0 -16 -6 -25 -15 -25 -18 0 -19 4 -3 30 16 26 18 25 18 -5z m1300 -11 c0 -19
-5 -24 -25 -24 -17 0 -25 6 -25 17 0 13 3 14 12 5 17 -17 33 -15 18 3 -6 8 -9
19 -5 25 10 16 25 1 25 -26z m-1736 17 c3 -5 -1 -11 -9 -15 -8 -3 -15 -10 -15
-16 0 -6 4 -9 9 -6 4 3 6 -6 3 -19 -5 -28 -4 -27 -26 -19 -8 3 -13 11 -11 17
24 68 35 81 49 58z m496 -17 c0 -18 -14 -18 -29 0 -9 11 -9 15 1 19 17 6 28
-1 28 -19z m1080 1 c-13 -15 -35 -11 -24 6 3 5 10 7 15 4 5 -4 9 -1 9 6 0 7 3
9 6 6 4 -4 1 -13 -6 -22z m-1523 -3 c-21 -23 -22 -39 -3 -23 11 9 16 9 21 1
10 -16 -4 -27 -42 -35 -32 -6 -32 -6 -22 23 5 16 20 34 32 40 31 15 32 14 14
-6z m736 -60 c-15 -11 -18 -11 -21 3 -2 9 0 22 5 28 4 7 0 4 -9 -6 -10 -11
-18 -14 -18 -8 0 7 12 23 28 38 l27 25 3 -33 c3 -23 -2 -37 -15 -47z m-269 52
c3 -8 2 -12 -4 -9 -6 3 -10 10 -10 16 0 14 7 11 14 -7z m972 7 c7 6 19 9 26 6
7 -3 -2 -11 -22 -20 -40 -18 -43 -17 -33 9 4 11 8 13 11 6 3 -10 7 -10 18 -1z
m-919 -19 c-24 -26 -21 -39 3 -17 18 17 20 17 26 1 9 -23 -5 -36 -51 -43 -36
-6 -37 -5 -30 18 10 32 34 59 53 59 13 0 13 -3 -1 -18z m1079 -4 c-5 13 -3 22
3 22 6 0 11 -13 11 -30 0 -33 -15 -38 -45 -16 -12 9 -16 19 -11 32 7 18 9 17
28 -6 20 -24 20 -24 14 -2z m198 15 c2 7 5 5 5 -4 1 -24 -25 -42 -49 -34 -11
3 -20 15 -20 25 0 16 4 17 29 10 21 -6 31 -5 35 3z m-329 -28 c-16 -14 -41
-25 -54 -25 -30 0 -23 8 27 31 52 25 62 22 27 -6z m-1331 -1 c12 -30 6 -44
-18 -44 -24 0 -51 22 -40 33 4 3 15 2 25 -4 25 -13 26 6 2 20 -16 9 -16 10 3
11 12 0 25 -7 28 -16z m109 9 c4 -3 2 -12 -4 -19 -8 -10 2 -14 51 -20 49 -5
60 -10 56 -23 -3 -9 -8 -29 -12 -44 -7 -31 -17 -31 -71 6 -33 22 -39 30 -53
80 -7 22 -6 27 9 27 10 0 21 -3 24 -7z m155 -5 c18 -18 15 -27 -8 -21 -11 3
-20 12 -20 19 0 17 12 18 28 2z m1271 -12 c9 -11 7 -15 -9 -19 -11 -3 -20 -4
-20 -2 0 2 -3 10 -6 19 -8 20 19 22 35 2z m-1334 -6 c4 -6 -6 -10 -22 -9 -25
0 -26 1 -8 9 11 5 21 9 22 9 1 1 5 -3 8 -9z m460 -10 c18 -19 17 -20 -7 -20
-30 0 -38 7 -31 26 7 19 17 18 38 -6z m762 -31 c-10 -17 -13 -17 -29 -2 -10 9
-18 23 -17 32 0 11 4 9 11 -6 6 -13 15 -23 20 -23 5 0 4 9 -2 19 -15 30 -12
36 9 17 16 -15 18 -22 8 -37z m349 36 c10 -8 17 -15 14 -15 -33 -8 -38 -7 -34
5 3 7 -3 15 -13 18 -13 3 -14 5 -2 6 8 0 24 -6 35 -14z m-1859 -29 c-6 -14
-57 -10 -57 5 0 14 22 22 30 9 5 -8 9 -6 15 7 9 21 20 1 12 -21z m621 20 c9 2
7 -1 -6 -7 -25 -13 -38 -7 -26 12 5 9 9 10 11 2 3 -7 12 -10 21 -7z m1072 5
c0 -5 -7 -12 -16 -15 -12 -4 -14 -13 -10 -32 5 -17 3 -23 -4 -19 -14 8 -13 31
2 55 13 21 28 27 28 11z m105 -1 c3 -5 -1 -10 -9 -10 -9 0 -16 5 -16 10 0 6 4
10 9 10 6 0 13 -4 16 -10z m-1675 -16 c0 -8 -4 -12 -10 -9 -5 3 -10 10 -10 16
0 5 5 9 10 9 6 0 10 -7 10 -16z m1624 0 c10 -25 7 -34 -9 -34 -8 0 -15 7 -15
16 0 14 -3 14 -15 4 -10 -8 -15 -9 -15 -2 0 10 27 31 41 32 4 0 10 -7 13 -16z
m-1814 -4 c0 -5 -4 -10 -10 -10 -5 0 -10 5 -10 10 0 6 5 10 10 10 6 0 10 -4
10 -10z m580 -5 c-7 -9 -15 -13 -19 -10 -3 3 1 10 9 15 21 14 24 12 10 -5z
m136 6 c-3 -4 1 -17 10 -27 14 -18 15 -18 9 4 -5 16 -2 22 9 22 21 0 25 -12
11 -37 l-11 -21 -33 20 c-31 20 -32 22 -15 35 21 15 27 17 20 4z m815 -17 l24
-26 -32 18 c-17 10 -29 22 -27 26 7 11 8 11 35 -18z m163 11 c-22 -17 -34 -19
-34 -6 0 5 8 12 18 14 32 9 36 7 16 -8z m-1784 -5 c0 -5 -5 -10 -11 -10 -5 0
-7 5 -4 10 3 6 8 10 11 10 2 0 4 -4 4 -10z m1740 -11 c0 -5 -4 -9 -10 -9 -5 0
-10 7 -10 16 0 8 5 12 10 9 6 -3 10 -10 10 -16z m230 14 c-8 -3 -23 -10 -32
-15 -13 -6 -18 -5 -18 7 0 10 10 15 33 14 17 0 25 -3 17 -6z m-1920 -7 c0 -2
-7 -7 -16 -10 -8 -3 -12 -2 -9 4 6 10 25 14 25 6z m197 -2 c-3 -3 -12 -4 -19
-1 -8 3 -5 6 6 6 11 1 17 -2 13 -5z m283 -4 c0 -5 -4 -10 -10 -10 -5 0 -10 5
-10 10 0 6 5 10 10 10 6 0 10 -4 10 -10z m20 -20 c-6 -12 -14 -20 -17 -17 -2
3 1 14 8 26 17 26 24 19 9 -9z m80 19 c0 -5 -1 -9 -3 -9 -1 0 -17 -4 -35 -9
-29 -9 -31 -8 -22 8 9 19 60 26 60 10z m300 -1 c0 -4 -13 -8 -30 -8 -16 0 -30
5 -30 10 0 6 14 9 30 8 17 -1 30 -6 30 -10z m-796 -7 c6 -9 -35 -24 -43 -15
-6 5 18 24 31 24 4 0 9 -4 12 -9z m49 -5 c6 -16 -19 -30 -28 -16 -7 11 2 30
15 30 4 0 10 -6 13 -14z m515 -9 c2 -11 -6 -21 -23 -27 -34 -13 -112 -13 -120
0 -3 6 3 10 15 10 12 0 30 5 40 10 13 7 21 7 25 -1 5 -6 13 -3 22 11 17 24 36
22 41 -3z m1012 3 c0 -11 -4 -20 -10 -20 -5 0 -10 9 -10 20 0 11 5 20 10 20 6
0 10 -9 10 -20z m77 -2 c-3 -8 -6 -5 -6 6 -1 11 2 17 5 13 3 -3 4 -12 1 -19z
m-1737 -8 c-28 -22 -40 -25 -40 -10 0 6 7 10 15 10 8 0 15 5 15 10 0 6 8 10
18 10 14 0 12 -4 -8 -20z m1711 -33 c-16 -16 -26 0 -11 18 15 18 -1 20 -18 3
-7 -7 -12 -8 -12 -2 0 6 10 16 23 21 18 9 23 7 25 -10 2 -10 -1 -24 -7 -30z
m-839 18 c-5 -29 -14 -31 -49 -8 -23 16 -24 17 -7 24 11 4 29 8 40 8 17 1 20
-4 16 -24z m586 2 c4 -20 -33 -24 -44 -5 -5 8 0 9 14 6 22 -6 31 6 12 15 -6 3
-5 4 2 3 7 -1 14 -10 16 -19z m449 1 c32 -30 29 -38 -18 -38 -28 0 -39 4 -36
13 2 6 15 11 27 9 23 -2 23 -2 5 18 -24 27 -7 26 22 -2z m-1812 2 c3 -5 -11
-12 -30 -16 -36 -6 -51 -2 -42 13 7 11 65 14 72 3z m1435 -15 c0 -24 -12 -45
-26 -45 -8 0 -14 8 -14 18 0 10 -5 23 -12 30 -8 8 -9 12 -1 12 6 0 16 -12 22
-27 l11 -28 -3 31 c-2 23 0 31 10 27 7 -3 13 -11 13 -18z m-180 5 c-20 -13
-33 -13 -25 0 3 6 14 10 23 10 15 0 15 -2 2 -10z m220 -5 c7 -8 9 -15 6 -15
-4 0 -14 7 -22 15 -9 8 -11 15 -6 15 5 0 15 -7 22 -15z m-170 -15 c0 -24 -22
-26 -40 -5 -15 18 0 20 19 3 11 -11 13 -10 8 5 -4 9 -2 17 3 17 6 0 10 -9 10
-20z m380 16 c0 -11 -19 -15 -25 -6 -3 5 1 10 9 10 9 0 16 -2 16 -4z m-1680
-12 c0 -3 -5 -14 -10 -24 -6 -11 -6 -21 -1 -24 5 -3 11 4 14 15 3 12 11 19 18
17 25 -8 20 -28 -13 -58 l-33 -31 -7 33 c-10 42 -2 78 17 78 8 0 15 -3 15 -6z
m170 -14 c-32 -25 -43 -25 -30 0 6 11 21 20 33 20 22 0 22 -1 -3 -20z m55 0
c10 -11 16 -20 13 -20 -3 0 -13 9 -23 20 -10 11 -16 20 -13 20 3 0 13 -9 23
-20z m1015 0 c0 -5 -4 -10 -9 -10 -6 0 -13 5 -16 10 -3 6 1 10 9 10 9 0 16 -4
16 -10z m115 -21 c-4 -5 -11 -9 -16 -9 -6 0 -7 5 -4 10 3 6 -1 10 -10 10 -9 0
-13 5 -10 10 4 7 13 7 26 0 11 -6 17 -15 14 -21z m376 14 c13 -15 12 -15 -8
-4 -24 12 -29 21 -14 21 5 0 15 -7 22 -17z m-1781 3 c0 -2 -7 -9 -15 -16 -13
-11 -14 -10 -9 4 5 14 24 23 24 12z m253 -13 c-7 -2 -19 -2 -25 0 -7 3 -2 5
12 5 14 0 19 -2 13 -5z m468 -26 c-19 -19 -12 -31 8 -13 11 10 22 13 25 8 6
-11 -9 -25 -36 -35 -14 -5 -18 -1 -18 22 0 31 8 43 22 35 6 -4 5 -11 -1 -17z
m589 16 c0 -12 -29 -31 -43 -29 -29 4 -31 16 -3 16 15 0 25 4 22 8 -3 5 1 9 9
9 8 0 15 -2 15 -4z m345 -14 c5 -5 -6 -9 -28 -9 -26 0 -37 4 -37 15 0 12 7 14
28 9 15 -4 31 -11 37 -15z m115 17 c0 -3 -4 -8 -10 -11 -5 -3 -10 -1 -10 4 0
6 5 11 10 11 6 0 10 -2 10 -4z m-1570 -15 c0 -6 -4 -13 -10 -16 -5 -3 -10 -14
-10 -23 1 -15 2 -15 15 2 11 15 18 17 26 9 16 -16 4 -30 -31 -35 -28 -4 -30
-2 -30 27 0 17 3 35 7 38 10 10 33 8 33 -2z m240 5 c0 -15 -24 -66 -31 -66
-13 0 -11 13 7 38 8 12 10 22 5 22 -6 0 -19 -17 -30 -37 -18 -34 -20 -36 -20
-13 -1 29 8 45 29 53 18 6 40 9 40 3z m934 -28 c4 -17 2 -28 -4 -28 -5 0 -10
14 -10 32 0 36 4 35 14 -4z m451 22 c3 -5 -2 -10 -12 -10 -11 0 -24 -5 -31
-12 -9 -9 -12 -9 -12 3 0 9 3 19 7 22 10 10 41 8 48 -3z m-1362 -20 c-3 -11
-7 -20 -9 -20 -2 0 -4 9 -4 20 0 11 4 20 9 20 5 0 7 -9 4 -20z m47 10 c0 -5
-7 -10 -16 -10 -8 0 -12 5 -9 10 3 6 10 10 16 10 5 0 9 -4 9 -10z m1047 4 c-3
-3 -12 -4 -19 -1 -8 3 -5 6 6 6 11 1 17 -2 13 -5z m-147 -14 c0 -5 -5 -10 -11
-10 -5 0 -7 5 -4 10 3 6 8 10 11 10 2 0 4 -4 4 -10z m448 -10 c-15 -24 -22
-25 -37 -6 -12 14 -11 15 42 25 4 0 2 -8 -5 -19z m-1248 1 c0 -5 3 -16 6 -25
7 -19 -21 -23 -32 -4 -4 7 -3 8 4 4 16 -9 15 7 0 22 -9 9 -8 12 5 12 9 0 17
-4 17 -9z m943 2 c3 -5 -8 -9 -24 -10 -17 -1 -27 2 -24 7 7 12 42 13 48 3z
m57 -8 c-7 -9 -15 -13 -17 -11 -7 7 7 26 19 26 6 0 6 -6 -2 -15z m40 5 c0 -5
-4 -10 -10 -10 -5 0 -10 5 -10 10 0 6 5 10 10 10 6 0 10 -4 10 -10z m23 -5
c-3 -9 -8 -14 -10 -11 -3 3 -2 9 2 15 9 16 15 13 8 -4z m-333 -5 c0 -5 -2 -10
-4 -10 -3 0 -8 5 -11 10 -3 6 -1 10 4 10 6 0 11 -4 11 -10z m370 6 c0 -3 -4
-8 -10 -11 -5 -3 -10 -1 -10 4 0 6 5 11 10 11 6 0 10 -2 10 -4z m-1220 -22
l-25 -15 24 5 c35 7 12 -11 -24 -20 l-30 -7 24 27 c14 14 32 26 40 26 11 -1 8
-6 -9 -16z m785 -5 c-5 -16 -4 -20 6 -15 8 4 5 0 -5 -8 -25 -20 -29 -15 -17
18 12 31 25 35 16 5z m549 6 c13 -10 16 -20 11 -32 -7 -16 -8 -15 -14 6 -4 13
-15 28 -26 32 -13 5 -15 8 -5 8 8 0 23 -6 34 -14z m-1250 -11 c4 -9 4 -26 0
-36 -6 -19 -6 -19 -21 2 -8 12 -12 24 -9 27 3 4 6 1 6 -5 0 -7 5 -12 10 -12 7
0 7 6 0 20 -6 11 -7 20 -1 20 5 0 12 -7 15 -16z m766 0 c0 -2 -7 -4 -15 -4 -8
0 -15 4 -15 10 0 5 7 7 15 4 8 -4 15 -8 15 -10z m192 -6 c-5 -23 -5 -23 16 -4
19 17 22 17 22 3 0 -14 -27 -37 -44 -37 -8 0 -7 45 1 53 10 11 11 8 5 -15z
m195 -2 c-13 -27 -47 -42 -47 -21 0 12 36 43 52 44 3 1 1 -10 -5 -23z m-1493
-16 c-4 -19 -2 -30 5 -30 6 0 11 11 11 25 0 16 6 25 15 25 19 0 19 -13 0 -50
-18 -34 -27 -37 -49 -14 -20 20 -20 33 1 56 22 24 24 23 17 -12z m1430 22 c2
-4 -7 -9 -20 -10 -15 -1 -22 2 -19 8 7 12 32 13 39 2z m136 -12 c16 -29 -14
-74 -40 -60 -23 12 -36 48 -22 62 6 6 12 -3 17 -24 7 -31 8 -31 12 -8 9 55 16
61 33 30z m-1383 4 c-3 -3 -12 -4 -19 -1 -8 3 -5 6 6 6 11 1 17 -2 13 -5z
m-12 -36 c-6 -22 -6 -22 9 -4 16 19 16 19 16 -1 0 -13 -8 -24 -21 -28 -28 -9
-34 0 -21 30 14 31 25 33 17 3z m205 1 c0 -6 -4 -7 -10 -4 -5 3 -10 11 -10 16
0 6 5 7 10 4 6 -3 10 -11 10 -16z m-128 -1 c-7 -7 -12 -16 -12 -22 0 -6 5 -5
12 2 16 16 38 15 38 -2 0 -8 -14 -15 -35 -18 -27 -3 -35 0 -35 12 0 18 19 40
34 40 6 0 5 -5 -2 -12z m1138 3 c0 -5 -7 -11 -15 -15 -9 -3 -15 0 -15 9 0 8 7
15 15 15 8 0 15 -4 15 -9z m111 -36 c5 4 9 2 9 -3 0 -6 -7 -12 -15 -16 -12 -4
-15 2 -14 27 1 24 3 26 6 9 2 -12 9 -20 14 -17z m-1118 8 c-7 -2 -19 -2 -25 0
-7 3 -2 5 12 5 14 0 19 -2 13 -5z m-53 -16 c0 -23 -39 -52 -51 -40 -6 6 -8 17
-4 23 6 9 10 9 16 -1 7 -11 10 -9 15 9 7 24 24 30 24 9z m1080 -8 c13 -23 13
-24 -16 -33 -12 -4 -28 0 -40 9 -18 15 -17 16 16 10 28 -5 31 -4 18 5 -22 13
-23 30 -3 30 8 0 19 -9 25 -21z m-265 -316 c-9 -38 -14 -41 -57 -36 l-38 5 22
18 c12 10 28 15 35 13 7 -3 13 2 13 11 0 9 7 16 16 16 13 0 15 -6 9 -27z m170
-9 c31 -5 35 -9 29 -28 -12 -40 -36 -55 -74 -48 -25 6 -36 14 -38 29 -4 29 16
66 33 59 7 -2 30 -8 50 -12z m-125 -16 c0 -19 -18 -43 -25 -36 -4 3 -2 16 5
27 12 24 20 27 20 9z m279 -53 c-1 -47 -4 -55 -21 -55 -15 0 -18 5 -13 23 12
41 29 87 32 87 2 0 2 -25 2 -55z m-73 -21 c-5 -13 -46 -21 -46 -9 0 3 10 20
23 36 21 29 22 30 25 9 2 -12 1 -28 -2 -36z m-947 19 c-38 -28 -67 -43 -84
-43 -21 0 -19 19 3 26 9 3 31 12 47 19 43 20 62 18 34 -2z m-189 -33 c38 -7
30 -14 -30 -25 -102 -18 -97 -18 -103 5 -4 15 0 24 16 30 21 9 34 8 117 -10z
m314 -12 c-16 -18 -35 -39 -43 -45 -18 -15 -85 -18 -76 -3 3 6 19 10 36 10 19
0 41 11 66 35 47 44 56 45 17 3z m613 16 c19 -5 21 -10 12 -25 -5 -10 -17 -19
-26 -19 -18 0 -53 28 -53 42 0 9 35 10 67 2z m-1103 -19 c3 -10 -1 -18 -12
-21 -9 -3 -25 -10 -35 -15 -11 -6 -21 -8 -24 -5 -10 10 7 37 29 46 32 12 35
12 42 -5z m-120 -30 c-4 -8 -18 -18 -33 -21 -14 -3 -33 -8 -41 -10 -21 -7 -7
5 32 26 41 23 49 24 42 5z m1106 5 c0 -5 -4 -10 -9 -10 -6 0 -13 5 -16 10 -3
6 1 10 9 10 9 0 16 -4 16 -10z m-135 -15 c23 -8 31 -14 20 -14 -30 -1 -65 10
-65 20 0 11 -3 11 45 -6z m502 9 c-3 -3 -12 -4 -19 -1 -8 3 -5 6 6 6 11 1 17
-2 13 -5z m-153 -30 c9 -33 6 -36 -24 -21 -35 17 -39 47 -7 47 18 0 27 -7 31
-26z m263 10 c-3 -3 -12 -4 -19 -1 -8 3 -5 6 6 6 11 1 17 -2 13 -5z m-1222
-14 c17 -7 14 -9 -13 -9 -20 -1 -31 3 -27 9 7 12 13 12 40 0z m1072 -46 c-11
-11 -35 10 -40 34 l-5 27 24 -29 c14 -15 23 -30 21 -32z m-1299 26 c-13 -20
-38 -28 -38 -12 0 7 31 27 48 31 1 1 -3 -8 -10 -19z m107 1 c-3 -6 -14 -11
-23 -11 -15 1 -15 2 2 15 21 16 32 13 21 -4z m1382 -27 c3 -9 -3 -24 -14 -35
-20 -20 -20 -20 -53 8 l-34 28 39 6 c22 3 44 7 48 8 4 0 10 -6 14 -15z m-1710
-5 c24 -9 26 -12 11 -20 -21 -12 -76 10 -56 23 16 10 12 10 45 -3z m61 -34
c-15 -14 -30 -25 -34 -25 -4 0 3 11 16 25 13 14 28 25 34 25 6 0 -1 -11 -16
-25z m92 21 c0 -2 -7 -7 -16 -10 -8 -3 -12 -2 -9 4 6 10 25 14 25 6z"/>
<path d="M1368 1973 c7 -3 16 -2 19 1 4 3 -2 6 -13 5 -11 0 -14 -3 -6 -6z"/>
</g>
</svg>
