<?xml version="1.0" encoding="UTF-8" standalone="no"?>
<svg width="165px" height="310px" viewBox="0 0 165 310" version="1.1" xmlns="http://www.w3.org/2000/svg" xmlns:xlink="http://www.w3.org/1999/xlink">
    <!-- Generator: Sketch 3.8.1 (29687) - http://www.bohemiancoding.com/sketch -->
    <title>body</title>
    <desc>Created with Sketch.</desc>
    <defs></defs>
    <g id="Page-1" stroke="none" stroke-width="1" fill="none" fill-rule="evenodd">
        <g id="Artboard-2-Copy" transform="translate(-913.000000, -528.000000)" stroke-width="10" stroke="#1DC9DE">
            <g id="body" transform="translate(918.000000, 533.000000)">
                <g id="Group">
                    <path d="M77.1660922,161.4 C77.1660922,161.4 80.1044808,171.833333 80.3382163,174 C80.5719517,176.166667 81.1729858,186.7 80.0376993,192.166667 C78.9024128,197.633333 81.9075829,216.666667 82.1079276,221.1 C82.3082723,225.533333 81.7072383,241.666667 81.6070659,243.633333 C81.5068936,245.6 82.8425248,252.633333 83.6772943,258.5 C84.5120638,264.366667 84.178156,275.233333 82.8425248,278.733333 C81.5068936,282.233333 81.0728134,284.933333 81.8074106,286.366667 C82.5420078,287.8 82.0077553,298.233333 82.8425248,298.866667 C83.6772943,299.5 84.5120638,300.2 85.2132701,299.6 C85.9478673,298.966667 94.7296424,298.766667 96.1988367,298.866667 C97.6346402,298.966667 98.7699268,298.766667 99.5045239,298.133333 C100.239121,297.5 99.7048686,296.266667 95.998492,295.333333 C92.2587247,294.4 90.4222318,286.333333 91.6576907,277.033333 C92.8931495,267.733333 97.2339509,260.933333 98.1688927,257.5 C99.1038346,254.1 101.90866,241.4 99.4043516,236.433333 C96.9000431,231.466667 95.6645842,216.3 97.8683757,206.366667 C100.038776,196.433333 104.379578,181.866667 106.883886,168.333333 C109.354804,154.8 104.179233,130.733333 102.943774,123.7 C101.708315,116.666667 101.073891,108.4 104.379578,99.1 C107.685265,89.8 105.615037,81.7333333 106.049117,84.2 C106.449806,86.6666667 113.094571,108.8 114.129685,112.933333 C115.1648,117.066667 124.480827,131.333333 126.7514,132.966667 C129.021973,134.6 132.127316,142.466667 132.127316,142.466667 L131.292546,148.466667 L139.974149,167.266667 L144.515295,168.3 L147.420293,165.6 L147.420293,149.266667 L152.395519,153.2 L154.265403,153.2 L154.265403,151.133333 L148.054718,143.7 C148.054718,143.7 143.279836,139.966667 141.009263,138.333333 C138.73869,136.7 136.234382,128.4 134.998923,125.533333 C133.763464,122.633333 132.29427,113.533333 130.224041,107.966667 C128.153813,102.4 122.577553,97.2333333 121.542439,94.3333333 C120.507324,91.4333333 120.039854,69.9666667 119.8729,67.4666667 C119.705946,65 115.999569,56.3 114.597156,54.3 C113.194744,52.3 109.788884,50.5666667 106.049117,49.9666667 C102.309349,49.3666667 97.968548,47.5 95.6645842,46.4 C93.3272296,45.3 91.6242999,43.3 90.4890134,42.8333333 C89.3537268,42.3666667 87.7509694,43.3 87.4504524,42.8333333 C87.1499354,42.3666667 86.3485567,32.7666667 88.0848772,30.9 C89.787807,29.0333333 90.4222318,16.5 90.4222318,16.5 C90.4222318,16.5 91.1902197,8.9 88.418785,4.73333333 C85.6473503,0.566666667 77.2328738,0.1 77.2328738,0.1 C77.2328738,0.1 68.851788,0.566666667 66.0469625,4.73333333 C63.242137,8.9 64.0435157,16.5 64.0435157,16.5 C64.0435157,16.5 64.6779405,29.0666667 66.3808703,30.9 C68.0838001,32.7666667 67.3158121,42.3666667 67.0152951,42.8333333 C66.7147781,43.3 65.1120207,42.3666667 63.9767342,42.8333333 C62.8414477,43.3 61.1385179,45.3 58.8011633,46.4 C56.4638087,47.5 52.1230073,49.3333333 48.4166308,49.9666667 C44.6768634,50.6 41.2710039,52.3 39.8685911,54.3 C38.4661784,56.3 34.7598018,65 34.5928479,67.4666667 C34.425894,69.9333333 33.9584231,91.4333333 32.9233089,94.3333333 C31.8881947,97.2333333 26.3119345,102.4 24.2417062,107.966667 C22.1714778,113.533333 20.7356743,122.633333 19.4668246,125.533333 C18.2313658,128.433333 15.7270573,136.7 13.4564843,138.333333 C11.1859112,140 6.41102973,143.7 6.41102973,143.7 L0.200344679,151.133333 L0.200344679,153.2 L2.07022835,153.2 L7.04545455,149.266667 L7.04545455,165.6 L9.95045239,168.3 L14.4915984,167.266667 L23.1732012,148.466667 L22.3384317,142.466667 C22.3384317,142.466667 25.4437742,134.6 27.7143473,132.966667 C29.9849203,131.3 39.3009479,117.066667 40.336062,112.933333 C41.3711762,108.8 47.9825506,86.6333333 48.4166308,84.2 C48.8173201,81.7333333 46.7470918,89.8 50.0861698,99.1 C53.4252477,108.4 52.7908229,116.666667 51.5219733,123.7 C50.2865144,130.733333 45.1109436,154.8 47.5818613,168.333333 C50.052779,181.866667 54.4269711,196.433333 56.5973718,206.366667 C58.7677725,216.3 57.5323137,231.466667 55.061396,236.433333 C52.5904782,241.4 55.361913,254.1 56.2968548,257.5 C57.2317966,260.9 61.572598,267.733333 62.8080569,277.033333 C64.0435157,286.333333 62.1736321,294.4 58.4672555,295.333333 C54.7274882,296.266667 54.2266265,297.5 54.9612236,298.133333 C55.6958208,298.766667 56.8311073,298.966667 58.2669108,298.866667 C59.7027143,298.766667 68.5178802,298.966667 69.2524774,299.6 C69.9870745,300.233333 70.7884533,299.5 71.6232227,298.866667 C72.4579922,298.233333 71.9237398,287.8 72.6583369,286.366667 C73.3929341,284.933333 72.9588539,282.233333 71.6232227,278.733333 C70.2875916,275.233333 69.9536838,264.366667 70.7884533,258.5 C71.6232227,252.633333 72.9588539,245.6 72.8586816,243.633333 C72.7585093,241.666667 72.1240844,225.566667 72.3578199,221.1 C72.5915554,216.633333 75.5633348,197.633333 74.4280483,192.166667 C73.2927617,186.7 73.9271866,176.166667 74.1275312,174 C74.2277036,171.833333 77.1660922,161.4 77.1660922,161.4 L77.1660922,161.4 Z" id="Shape"></path>
                </g>
            </g>
        </g>
    </g>
</svg>