<?xml version="1.0" encoding="UTF-8" standalone="no"?>
<svg width="246px" height="247px" viewBox="0 0 246 247" version="1.1" xmlns="http://www.w3.org/2000/svg" xmlns:xlink="http://www.w3.org/1999/xlink">
    <!-- Generator: Sketch 3.8.1 (29687) - http://www.bohemiancoding.com/sketch -->
    <title>noun_218883_cc</title>
    <desc>Created with Sketch.</desc>
    <defs></defs>
    <g id="Page-1" stroke="none" stroke-width="1" fill="none" fill-rule="evenodd">
        <g id="Artboard-2-Copy" transform="translate(-163.000000, -592.000000)" fill="#3D9EE3">
            <g id="noun_218883_cc" transform="translate(163.000000, 592.000000)">
                <g id="Group">
                    <path d="M184.398496,246.153846 L0,246.153846 L0,92.3076923 C0,37.0948718 37.0512923,0 92.1992481,0 C147.347204,0 184.398496,37.0948718 184.398496,92.3076923 L184.398496,246.153846 L184.398496,246.153846 Z M10.2443609,235.897436 L174.154135,235.897436 L174.154135,92.3076923 C174.154135,42.4641026 141.984281,10.2564103 92.1992481,10.2564103 C42.4142152,10.2564103 10.2443609,42.4641026 10.2443609,92.3076923 L10.2443609,235.897436 L10.2443609,235.897436 Z" id="Shape"></path>
                    <path d="M31.1915179,67.625641 C30.543562,67.625641 29.8828008,67.5025641 29.2450893,67.2384615 C26.6302162,66.1589744 25.3804041,63.1615385 26.4586231,60.5435897 C32.4951128,45.8641026 42.9417998,34.5820513 56.6615602,27.9179487 C59.2098449,26.6820513 62.2703477,27.7487179 63.5047932,30.2923077 C64.7392387,32.8410256 63.6763863,35.9076923 61.1332237,37.1435897 C49.5468515,42.7717949 41.0670818,51.9564103 35.9320959,64.4461538 C35.1151081,66.4282051 33.2070959,67.625641 31.1915179,67.625641 L31.1915179,67.625641 Z" id="Shape"></path>
                    <path d="M245.864662,246.153846 L179.276316,246.153846 C176.448872,246.153846 174.154135,243.85641 174.154135,241.025641 C174.154135,238.194872 176.448872,235.897436 179.276316,235.897436 L235.620301,235.897436 L235.620301,111.989744 C235.620301,72.1974359 202.997133,41.025641 161.348684,41.025641 C158.521241,41.025641 156.226504,38.7282051 156.226504,35.8974359 C156.226504,33.0666667 158.521241,30.7692308 161.348684,30.7692308 C208.741659,30.7692308 245.864662,66.4461538 245.864662,111.989744 L245.864662,246.153846 L245.864662,246.153846 Z" id="Shape"></path>
                    <path d="M133.176692,192.307692 L48.6607143,192.307692 C45.8332707,192.307692 43.5385338,190.010256 43.5385338,187.179487 C43.5385338,184.348718 45.8332707,182.051282 48.6607143,182.051282 L133.176692,182.051282 C136.004135,182.051282 138.298872,184.348718 138.298872,187.179487 C138.298872,190.010256 136.004135,192.307692 133.176692,192.307692 L133.176692,192.307692 Z" id="Shape"></path>
                    <path d="M117.81015,212.820513 L64.0272556,212.820513 C61.199812,212.820513 58.9050752,210.523077 58.9050752,207.692308 C58.9050752,204.861538 61.199812,202.564103 64.0272556,202.564103 L117.81015,202.564103 C120.637594,202.564103 122.932331,204.861538 122.932331,207.692308 C122.932331,210.523077 120.637594,212.820513 117.81015,212.820513 L117.81015,212.820513 Z" id="Shape"></path>
                    <path d="M110.12688,156.410256 L74.2716165,156.410256 L74.2716165,107.692308 L51.2218045,107.692308 L51.2218045,76.9230769 L74.2716165,76.9230769 L74.2716165,56.4102564 L110.12688,56.4102564 L110.12688,76.9230769 L133.176692,76.9230769 L133.176692,107.692308 L110.12688,107.692308 L110.12688,156.410256 L110.12688,156.410256 Z M84.5159774,146.153846 L99.8825188,146.153846 L99.8825188,97.4358974 L122.932331,97.4358974 L122.932331,87.1794872 L99.8825188,87.1794872 L99.8825188,66.6666667 L84.5159774,66.6666667 L84.5159774,87.1794872 L61.4661654,87.1794872 L61.4661654,97.4358974 L84.5159774,97.4358974 L84.5159774,146.153846 L84.5159774,146.153846 Z" id="Shape"></path>
                </g>
            </g>
        </g>
    </g>
</svg>