<?xml version="1.0" encoding="UTF-8" standalone="no"?>
<svg width="253px" height="230px" viewBox="0 0 253 230" version="1.1" xmlns="http://www.w3.org/2000/svg" xmlns:xlink="http://www.w3.org/1999/xlink">
    <!-- Generator: Sketch 3.8.1 (29687) - http://www.bohemiancoding.com/sketch -->
    <title>earth</title>
    <desc>Created with Sketch.</desc>
    <defs></defs>
    <g id="Page-1" stroke="none" stroke-width="1" fill="none" fill-rule="evenodd">
        <g id="Artboard-2-Copy" transform="translate(-167.000000, -194.000000)" fill="#9CABFD">
            <g id="earth" transform="translate(167.000000, 194.000000)">
                <g id="Group">
                    <path d="M104.26087,193.304348 L104.26087,193.304348 L104.26087,193.304348 C104.26087,195.391304 104.26087,198 103.73913,200.608696 L102.434783,225.913043 C102.434783,227.73913 100.869565,229.304348 99.0434783,229.304348 L59.6521739,229.043478 C57.826087,229.043478 56.2608696,227.478261 56.2608696,225.652174 L55.4782609,204.782609 L17.9130435,159.652174 C12.4347826,153.913043 8.52173913,147.130435 7.47826087,139.304348 L7.2173913,136.956522 L0.695652174,73.5652174 C0.173913043,70.4347826 1.2173913,67.3043478 3.82608696,65.2173913 C6.69565217,62.8695652 11.3913043,62.0869565 14.7826087,66 C17.1304348,68.8695652 18.4347826,77.4782609 18.6956522,79.826087 C20,88.173913 21.5652174,99.9130435 21.826087,108.26087 L21.826087,110.086957 C22.0869565,113.73913 22.8695652,117.130435 24.4347826,120.521739 C32.7826087,138.782609 49.7391304,162 49.7391304,162 L50.7826087,163.304348 C51.5652174,164.347826 52.8695652,164.608696 53.9130435,164.086957 C55.2173913,163.304348 55.4782609,161.73913 54.9565217,160.695652 L32.5217391,124.173913 C30.173913,120 31.4782609,114.26087 35.9130435,111.652174 C40.3478261,109.043478 46.0869565,110.347826 48.4347826,114.521739 L71.9130435,144.521739 C73.4782609,146.608696 76.3478261,149.217391 78.4347826,150.782609 C99.5652174,165.913043 102.173913,181.304348 104,189.130435 C104,189.130435 104,190.695652 104.26087,193.304348 L104.26087,193.304348 Z M28.8695652,104.086957 L28.8695652,106.173913 C29.6521739,105.391304 30.4347826,104.869565 31.4782609,104.347826 C32.5217391,103.565217 33.826087,103.043478 35.1304348,102.782609 C35.1304348,102.782609 35.1304348,102.521739 35.3913043,102.521739 C34.6086957,96 32.2608696,83.4782609 30.4347826,77.2173913 C29.6521739,74.0869565 27.826087,71.7391304 24.4347826,70.6956522 C25.2173913,73.0434783 25.4782609,75.1304348 26,77.2173913 C27.0434783,84.2608696 28.6086957,97.0434783 28.8695652,104.086957 L28.8695652,104.086957 Z M41.6521739,100.695652 L41.6521739,101.478261 C43.4782609,101.478261 45.5652174,102 47.3913043,102.521739 C46.8695652,98.3478261 44,89.7391304 42.9565217,85.826087 C42.173913,82.6956522 40.3478261,80.3478261 36.9565217,79.3043478 C38,84 40.6086957,92.8695652 41.3913043,97.3043478 L41.6521739,100.695652 L41.6521739,100.695652 Z M238.086957,66 C235.73913,68.8695652 234.434783,77.4782609 234.173913,79.826087 C232.869565,88.173913 231.304348,99.9130435 231.043478,108.26087 L231.043478,110.086957 C230.782609,113.73913 230,117.130435 228.434783,120.521739 C220.086957,138.782609 203.130435,162 203.130435,162 L202.086957,163.565217 C201.304348,164.608696 200,164.869565 198.956522,164.347826 C197.652174,163.565217 197.391304,162 197.913043,160.956522 L220.347826,124.434783 C222.695652,120.26087 221.391304,114.521739 216.956522,111.913043 C212.521739,109.304348 206.782609,110.608696 204.434783,114.782609 L180.956522,144.782609 C179.391304,146.869565 176.521739,149.478261 174.434783,151.043478 C153.304348,166.173913 150.695652,181.565217 148.869565,189.391304 C148.869565,189.391304 148.608696,191.217391 148.608696,193.565217 L148.608696,193.565217 C148.608696,195.652174 148.608696,198.26087 149.130435,200.869565 L150.434783,226.173913 C150.434783,228 152,229.565217 153.826087,229.565217 L193.217391,229.304348 C195.043478,229.304348 196.608696,227.73913 196.608696,225.913043 L197.391304,205.043478 L234.956522,159.913043 C240.434783,154.173913 244.347826,147.391304 245.391304,139.565217 L245.652174,137.217391 L252.173913,73.826087 C252.695652,70.4347826 251.652174,67.3043478 249.043478,65.2173913 C246.173913,62.8695652 241.478261,62.0869565 238.086957,66 L238.086957,66 Z M221.391304,104.347826 C222.434783,104.869565 223.217391,105.652174 224,106.173913 L224,104.086957 C224.26087,97.3043478 225.826087,84.2608696 227.130435,77.2173913 C227.391304,75.1304348 227.913043,72.7826087 228.695652,70.6956522 C225.565217,71.7391304 223.478261,74.0869565 222.695652,77.2173913 C221.130435,83.7391304 218.782609,96 217.73913,102.521739 C217.73913,102.521739 217.73913,102.782609 218,102.782609 C219.043478,103.043478 220.347826,103.565217 221.391304,104.347826 L221.391304,104.347826 Z M211.217391,100.695652 L211.73913,97.5652174 C212.26087,92.8695652 215.130435,84.2608696 216.173913,79.5652174 C213.043478,80.6086957 211.217391,82.9565217 210.173913,86.0869565 C209.130435,90 206.26087,98.6086957 205.73913,102.782609 C207.565217,102 209.391304,101.73913 211.478261,101.73913 C211.217391,101.217391 211.217391,100.956522 211.217391,100.695652 L211.217391,100.695652 Z M87.5652174,126.782609 L93.3043478,118.695652 C78.6956522,108 70.0869565,91.0434783 70.0869565,73.0434783 C70.0869565,42 95.3913043,16.6956522 126.434783,16.6956522 L126.434783,22.4347826 C126.434783,22.9565217 127.217391,23.4782609 127.73913,22.9565217 L143.391304,12.2608696 C143.913043,12 143.913043,11.2173913 143.391304,10.9565217 L127.73913,0.260869565 C127.217391,-4.6629367e-15 126.434783,0.52173913 126.434783,1.04347826 L126.434783,6.7826087 C89.9130435,6.7826087 60.173913,36.5217391 60.173913,73.0434783 C60.173913,94.173913 70.3478261,114.26087 87.5652174,126.782609 L87.5652174,126.782609 Z M192.695652,73.0434783 C192.695652,51.9130435 182.521739,31.826087 165.304348,19.3043478 L159.565217,27.3913043 C174.173913,38.0869565 182.782609,55.0434783 182.782609,73.0434783 C182.782609,104.086957 157.478261,129.391304 126.434783,129.391304 L126.434783,129.391304 L126.434783,123.652174 C126.434783,123.130435 125.652174,122.608696 125.130435,123.130435 L109.478261,133.826087 C108.956522,134.086957 108.956522,134.869565 109.478261,135.130435 L125.130435,145.826087 C125.652174,146.086957 126.434783,145.826087 126.434783,145.304348 L126.434783,139.565217 L126.434783,139.565217 C162.956522,139.304348 192.695652,109.565217 192.695652,73.0434783 L192.695652,73.0434783 Z M126.434783,28.173913 C151.217391,28.173913 171.304348,48.2608696 171.304348,73.0434783 C171.304348,97.826087 151.217391,117.913043 126.434783,117.913043 C101.652174,117.913043 81.5652174,97.826087 81.5652174,73.0434783 C81.5652174,48.2608696 101.652174,28.173913 126.434783,28.173913 L126.434783,28.173913 Z M97.2173913,56.8695652 L106.086957,56.8695652 C107.913043,50.8695652 110.521739,46.173913 113.130435,42.5217391 C106.347826,45.3913043 100.869565,50.3478261 97.2173913,56.8695652 L97.2173913,56.8695652 Z M104.521739,82.4347826 C104,79.5652174 103.73913,76.4347826 103.73913,73.0434783 C103.73913,69.6521739 104,66.5217391 104.521739,63.6521739 L94.6086957,63.6521739 C93.826087,66.7826087 93.3043478,69.9130435 93.3043478,73.0434783 C93.3043478,76.4347826 93.826087,79.5652174 94.6086957,82.4347826 L104.521739,82.4347826 L104.521739,82.4347826 Z M113.130435,103.565217 C110.521739,99.6521739 107.652174,94.9565217 106.086957,89.2173913 L97.2173913,89.2173913 C100.869565,95.7391304 106.347826,100.695652 113.130435,103.565217 L113.130435,103.565217 Z M123.043478,89.2173913 L113.130435,89.2173913 C115.73913,96.5217391 119.913043,101.73913 123.043478,104.869565 L123.043478,89.2173913 L123.043478,89.2173913 Z M123.043478,63.6521739 L111.304348,63.6521739 C110.782609,66.5217391 110.521739,69.6521739 110.521739,73.0434783 C110.521739,76.4347826 110.782609,79.5652174 111.304348,82.4347826 L123.043478,82.4347826 L123.043478,63.6521739 L123.043478,63.6521739 Z M123.043478,41.2173913 C119.913043,44.3478261 115.73913,49.5652174 113.130435,57.1304348 L123.043478,57.1304348 L123.043478,41.2173913 L123.043478,41.2173913 Z M155.652174,89.2173913 L146.782609,89.2173913 C144.956522,95.2173913 142.347826,99.9130435 139.73913,103.565217 C146.521739,100.695652 152,95.7391304 155.652174,89.2173913 L155.652174,89.2173913 Z M148.347826,63.6521739 C148.869565,66.5217391 149.130435,69.6521739 149.130435,73.0434783 C149.130435,76.4347826 148.869565,79.5652174 148.347826,82.4347826 L158.26087,82.4347826 C159.043478,79.3043478 159.565217,76.173913 159.565217,73.0434783 C159.565217,69.6521739 159.043478,66.5217391 158.26087,63.6521739 L148.347826,63.6521739 L148.347826,63.6521739 Z M139.73913,42.5217391 C142.347826,46.4347826 145.217391,51.1304348 146.782609,56.8695652 L155.652174,56.8695652 C152,50.3478261 146.521739,45.3913043 139.73913,42.5217391 L139.73913,42.5217391 Z M129.826087,56.8695652 L139.73913,56.8695652 C137.130435,49.5652174 132.956522,44.3478261 129.826087,41.2173913 L129.826087,56.8695652 L129.826087,56.8695652 Z M129.826087,82.4347826 L141.565217,82.4347826 C142.086957,79.5652174 142.347826,76.4347826 142.347826,73.0434783 C142.347826,69.6521739 142.086957,66.5217391 141.565217,63.6521739 L129.826087,63.6521739 L129.826087,82.4347826 L129.826087,82.4347826 Z M129.826087,105.130435 C132.956522,102 137.130435,96.7826087 139.73913,89.2173913 L129.826087,89.2173913 L129.826087,105.130435 L129.826087,105.130435 Z" id="Shape"></path>
                </g>
            </g>
        </g>
    </g>
</svg>