<?xml version="1.0" encoding="UTF-8" standalone="no"?>
<svg width="297px" height="300px" viewBox="0 0 297 300" version="1.1" xmlns="http://www.w3.org/2000/svg" xmlns:xlink="http://www.w3.org/1999/xlink">
    <!-- Generator: Sketch 3.8.1 (29687) - http://www.bohemiancoding.com/sketch -->
    <title>hunger</title>
    <desc>Created with Sketch.</desc>
    <defs></defs>
    <g id="Page-1" stroke="none" stroke-width="1" fill="none" fill-rule="evenodd">
        <g id="Artboard-2-Copy" transform="translate(-456.000000, -194.000000)" fill="#F84870">
            <g id="hunger" transform="translate(456.000000, 194.000000)">
                <path d="M64.4339631,97.3333333 L60.4306073,101.333333 C60.0969943,101.666667 59.7633813,102 59.0961554,102 C58.7625424,102 58.0953164,101.666667 57.7617034,101.333333 C57.0944774,100.666667 57.0944774,99.3333333 57.7617034,98.6666667 L61.7650592,94.6666667 L50.4222177,83.3333333 L46.4188619,87.3333333 C46.0852489,87.6666667 45.751636,88 45.08441,88 C44.750797,88 44.083571,87.6666667 43.7499581,87.3333333 C43.0827321,86.6666667 43.0827321,85.3333333 43.7499581,84.6666667 L47.7533139,80.6666667 L39.7466022,72.6666667 C39.0793763,72 39.0793763,70.6666667 39.7466022,70 C40.4138282,69.3333333 41.7482801,69.3333333 42.4155061,70 L50.4222177,78 L54.0919606,74.3333333 C54.7591865,73.6666667 56.0936385,73.6666667 56.7608645,74.3333333 C57.4280904,75 57.4280904,76.3333333 56.7608645,77 L53.0911216,80.6666667 L64.4339631,92 L68.1037059,88.3333333 C68.7709319,87.6666667 70.1053838,87.6666667 70.7726098,88.3333333 C71.4398358,89 71.4398358,90.3333333 70.7726098,91 L67.102867,94.6666667 L71.1062228,98.6666667 C71.7734488,99.3333333 71.7734488,100.666667 71.1062228,101.333333 C70.7726098,101.666667 70.4389968,102 69.7717709,102 C69.4381579,102 68.7709319,101.666667 68.4373189,101.333333 L64.4339631,97.3333333 L64.4339631,97.3333333 Z M94.1255188,203 C94.1255188,199 97.4616486,195.333333 101.798617,195.333333 C105.801973,195.333333 109.471716,198.666667 109.471716,203 C109.471716,207 106.135586,210.666667 101.798617,210.666667 C97.4616486,210.333333 94.1255188,207 94.1255188,203 L94.1255188,203 Z M97.7952616,203 C97.7952616,205 99.4633265,207 101.798617,207 C103.800295,207 105.801973,205.333333 105.801973,203 C105.801973,201 104.133908,199 101.798617,199 C99.4633265,199 97.7952616,201 97.7952616,203 L97.7952616,203 Z M112.807846,156 C116.811202,156 120.480945,159.333333 120.480945,163.666667 C120.480945,167.666667 117.144815,171.333333 112.807846,171.333333 C108.80449,171.333333 105.134747,168 105.134747,163.666667 C105.46836,159.333333 108.80449,156 112.807846,156 L112.807846,156 Z M112.807846,159.666667 C110.806168,159.666667 108.80449,161.333333 108.80449,163.666667 C108.80449,165.666667 110.472555,167.666667 112.807846,167.666667 C114.809524,167.666667 116.811202,166 116.811202,163.666667 C116.811202,161.333333 115.143137,159.666667 112.807846,159.666667 L112.807846,159.666667 Z M91.4566149,175.666667 C91.4566149,179.666667 88.120485,183.333333 84.1171292,183.333333 C80.1137734,183.333333 76.4440306,180 76.4440306,175.666667 C76.4440306,171.666667 79.7801604,168 84.1171292,168 C88.120485,168 91.4566149,171.333333 91.4566149,175.666667 L91.4566149,175.666667 Z M87.786872,175.666667 C87.786872,173.666667 86.1188071,171.666667 83.7835162,171.666667 C81.7818383,171.666667 79.7801604,173.333333 79.7801604,175.666667 C79.7801604,177.666667 81.4482253,179.666667 83.7835162,179.666667 C86.1188071,179.333333 87.786872,177.666667 87.786872,175.666667 L87.786872,175.666667 Z M125.151526,208.666667 C125.151526,204.666667 128.487656,201 132.824625,201 C136.827981,201 140.497724,204.333333 140.497724,208.666667 C140.497724,212.666667 137.161594,216.333333 132.824625,216.333333 C128.821269,216.333333 125.151526,212.666667 125.151526,208.666667 L125.151526,208.666667 Z M128.821269,208.666667 C128.821269,210.666667 130.489334,212.666667 132.824625,212.666667 C134.826303,212.666667 136.827981,211 136.827981,208.666667 C136.827981,206.666667 135.159916,204.666667 132.824625,204.666667 C130.822947,204.666667 128.821269,206.666667 128.821269,208.666667 L128.821269,208.666667 Z M206.553095,219 C206.553095,227.333333 200.881674,235 191.54051,241.333333 L188.871606,254.666667 L188.537993,255.666667 L188.537993,255.666667 L182.866573,283.333333 L182.866573,283.333333 L182.199347,287.333333 C169.522053,295 149.838887,300 126.819591,300 C104.467521,300 84.4507422,295 71.7734488,287.333333 L71.1062228,283.666667 L71.1062228,283.666667 L62.7658982,241.666667 C53.0911216,235.333333 47.7533139,227.666667 47.7533139,219.333333 C47.7533139,202.666667 69.1045449,189 99.7969395,183.666667 C99.7969395,179.666667 103.133069,176.333333 107.136425,176.333333 C110.472555,176.333333 113.475072,178.666667 114.475911,181.666667 C118.479267,181.333333 122.816235,181 127.153204,181 C171.857344,181.333333 206.553095,198 206.553095,219 L206.553095,219 Z M103.466682,183.666667 C103.466682,185.666667 105.134747,187.666667 107.470038,187.666667 C109.471716,187.666667 111.473394,186 111.473394,183.666667 C111.473394,181.666667 109.805329,179.666667 107.470038,179.666667 C105.134747,180 103.466682,181.666667 103.466682,183.666667 L103.466682,183.666667 Z M60.4306073,215.333333 C60.4306073,231.666667 90.4557759,245 127.153204,245 C163.850633,245 193.875801,231.666667 193.875801,215.333333 C193.875801,208 187.870767,201.333333 178.195991,196.333333 C164.851472,190.666667 146.83637,187 127.153204,187 C122.482622,187 118.145654,187.333333 113.808685,187.666667 C112.474233,190 110.138942,191.333333 107.470038,191.333333 C105.46836,191.333333 103.466682,190.333333 102.13223,189 C92.4574538,190.666667 83.7835162,193 76.4440306,196 C66.435641,201.333333 60.4306073,208 60.4306073,215.333333 L60.4306073,215.333333 Z M188.20438,243.666667 C173.859022,252 151.840565,257 127.153204,257 C102.465843,257 80.4473864,251.666667 66.102028,243.666667 L74.4423527,285.666667 C86.7860331,292.666667 105.801973,297.333333 127.153204,297.333333 C148.504435,297.333333 167.520375,292.666667 179.864056,285.666667 L188.20438,243.666667 L188.20438,243.666667 Z M200.881674,219 C200.881674,214 198.21277,209.333333 193.542188,205.333333 C195.543866,208.333333 196.544705,211.666667 196.544705,215 C196.544705,233.333333 165.85231,247.666667 126.819591,247.666667 C87.786872,247.666667 57.0944774,233.333333 57.0944774,215 C57.0944774,211.666667 58.0953164,208.333333 60.0969943,205 C55.4264125,209.333333 52.7575086,214 52.7575086,218.666667 C52.7575086,236.333333 86.4524201,251 126.485978,251 C167.186762,251.333333 200.881674,236.666667 200.881674,219 L200.881674,219 Z M75.7768046,147.333333 C75.7768046,151.333333 72.4406747,155 68.1037059,155 C63.7667371,155 60.4306073,151.666667 60.4306073,147.333333 C60.4306073,143.333333 63.7667371,139.666667 68.1037059,139.666667 C72.4406747,139.666667 75.7768046,143 75.7768046,147.333333 L75.7768046,147.333333 Z M72.1070618,147.333333 C72.1070618,145.333333 70.4389968,143.333333 68.1037059,143.333333 C66.102028,143.333333 64.1003501,145 64.1003501,147.333333 C64.1003501,149.333333 65.768415,151.333333 68.1037059,151.333333 C70.4389968,151 72.1070618,149.333333 72.1070618,147.333333 L72.1070618,147.333333 Z M46.4188619,164.333333 L46.4188619,164.333333 L46.4188619,164.333333 L0.0466570467,109.666667 C0.380270031,99 7.38614271,85.3333333 19.3962102,73.3333333 C31.4062776,61.3333333 45.418023,54.3333333 55.7600255,54 L110.472555,100 L110.472555,100 L110.806168,100 C120.147332,109.333333 113.808685,130.666667 96.4608096,148.333333 C97.1280356,149.333333 97.4616486,150.666667 97.4616486,151.666667 C97.4616486,155.666667 94.1255188,159.333333 89.78855,159.333333 C88.120485,159.333333 86.7860331,158.666667 85.4515811,158 C70.1053838,169.333333 54.4255736,172.333333 46.4188619,164.333333 L46.4188619,164.333333 Z M93.7919058,152 C93.7919058,150 92.1238408,148 89.78855,148 C87.786872,148 85.7851941,149.666667 85.7851941,152 C85.7851941,154 87.4532591,156 89.78855,156 C91.7902279,156 93.7919058,154.333333 93.7919058,152 L93.7919058,152 Z M61.4314462,115.333333 C73.1079007,103.666667 86.4524201,96.6666667 96.7944226,96 L53.4247346,59.6666667 C44.750797,61 33.4079555,67.3333333 23.399566,77.3333333 C13.3911764,87.3333333 7.05252973,98.6666667 5.71807779,107.333333 L42.0818931,150.666667 C43.0827321,140 49.7549918,127 61.4314462,115.333333 L61.4314462,115.333333 Z M82.4490643,153.333333 L82.4490643,152 C82.4490643,148 85.7851941,144.333333 90.1221629,144.333333 C90.7893889,144.333333 91.7902279,144.333333 92.4574538,144.666667 C107.470038,129.666667 114.142298,111 107.136425,104 L106.802812,103.666667 C99.4633265,97 81.1146123,104 66.102028,119 C51.0894437,134 44.083571,152.666667 50.7558307,159.666667 L51.0894437,160 C56.0936385,166 69.4381579,162.666667 82.4490643,153.333333 L82.4490643,153.333333 Z M222.232905,107 C217.22871,108.666667 214.559806,114 216.227871,119 C217.895936,124 223.233744,126.666667 228.237939,125 C233.242133,123.333333 235.911037,118 234.242972,113 C232.574907,108 227.2371,105.333333 222.232905,107 L222.232905,107 Z M284.28492,117.333333 C281.616016,136.666667 257.595881,159.666667 239.914393,164.666667 C237.245489,165.333333 234.910198,165.666667 232.90852,165.666667 L232.241294,165.666667 C232.574907,166.666667 232.90852,168 233.242133,169.333333 C233.242133,170.333333 233.575746,171.666667 233.242133,173 L234.242972,173 C234.910198,170.333333 237.245489,168.333333 239.914393,168.333333 C243.250523,168.333333 245.919427,171 245.919427,174.333333 C245.919427,177.666667 243.250523,180.333333 239.914393,180.333333 L239.914393,180.333333 L239.914393,180.333333 L239.914393,180.333333 C243.250523,180.333333 245.919427,183 245.919427,186.333333 C245.919427,189.666667 243.250523,192.333333 239.914393,192.333333 C237.245489,192.333333 234.910198,190.666667 234.242972,188 L226.236261,188 C225.569035,190.333333 223.233744,192.333333 220.56484,192 C217.22871,192 214.559806,189.333333 214.559806,186 C214.559806,182.666667 217.22871,180 220.56484,180 L220.56484,180 L220.56484,180 L220.56484,180 C217.22871,180 214.559806,177.333333 214.559806,174 C214.559806,170.666667 217.22871,168 220.56484,168 C223.567357,168 225.902648,170 226.236261,172.666667 L227.904326,172.666667 C227.904326,172 227.904326,171 227.570713,170 C227.2371,168.333333 227.2371,166.333333 227.904326,165 C225.902648,164.333333 224.234583,163.333333 222.900131,162 C210.890063,166.666667 199.547222,169.333333 192.207736,170.333333 C190.873284,170.666667 189.205219,170.666667 187.203542,170.666667 C178.195991,170.666667 164.517859,168.666667 157.845599,164.333333 C152.841404,161.333333 149.838887,150.333333 150.506113,145 C151.173339,138.666667 158.179212,132 164.184246,126.333333 C166.853149,123.666667 171.190118,119.666667 171.523731,118.333333 C170.856505,116.666667 170.522892,114.666667 169.855666,113 C167.520375,112 165.518697,110 164.851472,107.333333 C163.51702,103.666667 164.851472,100 167.520375,97.6666667 C167.186762,90.3333333 167.520375,83.6666667 169.18844,77.3333333 C151.840565,57.6666667 150.506113,5.33333333 150.506113,3 C150.506113,2 150.839726,1 151.840565,0.666666667 C152.507791,-3.80528942e-14 153.50863,-3.80528942e-14 154.509469,0.666666667 C156.177534,1.66666667 197.879157,22 210.55645,42 C218.563162,41 226.903487,41.6666667 234.576585,44 C254.593364,24.3333333 289.289115,3.33333333 291.290793,2.33333333 C292.291632,1.66666667 293.626084,1.66666667 294.626923,2.33333333 C295.627762,3 296.294988,4 296.294988,5.33333333 C295.961375,13 293.959697,72.6666667 277.279047,97 C277.279047,98 277.61266,99 277.61266,100 C282.616855,103.666667 285.285759,110 284.28492,117.333333 L284.28492,117.333333 Z M155.843921,7.33333333 C156.511147,20 159.513664,54.6666667 170.856505,71 C175.8607,58 185.535477,48.6666667 199.213609,44.3333333 C200.881674,43.6666667 202.216126,43.3333333 203.884191,43 C193.542188,28 166.185923,12.6666667 155.843921,7.33333333 L155.843921,7.33333333 Z M271.274014,102.666667 C269.939562,104 268.271497,105 266.603432,105.666667 C266.269819,106 265.602593,106 265.26898,106 C263.934528,106 262.933689,105.333333 262.266463,104 C261.599237,102.333333 262.266463,100.333333 263.934528,99.6666667 C281.282403,92.3333333 287.62105,37.3333333 288.955502,10.3333333 C287.62105,11.3333333 285.952985,12.3333333 284.28492,13.3333333 C270.606788,24.6666667 245.919427,46.3333333 240.248006,61.3333333 C239.914393,62 239.247167,62.6666667 238.579941,62.6666667 L237.912715,62.6666667 C236.911876,62.3333333 236.578263,61.3333333 236.911876,60.3333333 C240.248006,51.3333333 249.58917,40.6666667 259.597559,30.6666667 C244.584975,42 230.239617,54.3333333 226.903487,63.3333333 C226.236261,65 224.568196,65.6666667 222.900131,65.3333333 C221.232066,64.6666667 220.56484,63 220.898453,61.3333333 C222.566518,57.3333333 225.569035,53 229.572391,48.3333333 C219.897614,46 210.222837,46.3333333 200.881674,49.6666667 C187.870767,54 178.863217,63 174.859861,76 C172.858183,82 172.190957,88.6666667 172.52457,95.6666667 C176.861539,95.3333333 180.864895,97.6666667 182.199347,102 C183.867412,107 181.198508,112 176.194313,113.666667 C175.8607,113.666667 175.527087,113.666667 175.527087,114 C175.8607,115 176.194313,116.333333 176.527926,117.333333 C177.862378,121.333333 173.859022,125 167.520375,130.666667 C162.516181,135.666667 155.843921,141.666667 155.510308,146 C155.510308,147 155.510308,148.666667 155.843921,150.333333 C157.511986,151.666667 158.512825,152 160.514503,152.666667 L161.181729,153 C161.181729,152 161.515342,151 161.515342,150 C159.513664,149.333333 157.178373,148.333333 156.84476,146.333333 C156.177534,144.333333 157.511986,142 158.179212,141.333333 C158.846438,140.333333 159.847277,138.666667 161.515342,138.333333 C165.185085,137.333333 173.859022,139.666667 176.527926,143 C178.195991,145 176.861539,150 175.193474,151.333333 C173.859022,152.666667 171.190118,152.333333 168.854827,151.666667 C168.854827,152.666667 168.521214,154 168.187601,155 C179.19683,157.666667 196.211092,157 222.900131,140.666667 C223.90097,140 224.901809,140.333333 225.569035,141.333333 C226.236261,142.333333 225.902648,143.333333 224.901809,144 C207.220321,154.666667 192.207736,160 178.863217,160 C172.52457,160 166.519536,159 160.848116,156.666667 L159.847277,156.333333 C159.180051,156 158.512825,156 158.179212,155.666667 C159.180051,157.666667 160.18089,159.333333 161.181729,160 C167.186762,164 184.201025,166.333333 191.874123,165.333333 C217.895936,161.333333 269.605949,141.666667 271.274014,102.666667 L271.274014,102.666667 Z M230.239617,165.666667 L229.572391,165.666667 C229.238778,166.333333 229.238778,168 229.572391,170 C229.906004,171.333333 230.239617,172.333333 230.239617,173 L231.574068,173 L231.574068,169.666667 C231.240455,167.666667 230.57323,166.333333 230.239617,165.666667 L230.239617,165.666667 Z M276.945434,104.333333 C274.943757,132.666667 250.256396,150.666667 226.569874,160.666667 C229.572391,162.666667 233.909359,163 238.913554,161.333333 C255.26059,156.666667 278.279886,135 280.615177,117 C281.282403,111.666667 279.947951,107.666667 276.945434,104.333333 L276.945434,104.333333 Z M266.603432,87 L259.597559,94 C259.263946,94.3333333 259.263946,95 259.597559,95.3333333 C259.931172,95.6666667 259.931172,95.6666667 260.264785,95.6666667 C260.598398,95.6666667 260.598398,95.6666667 260.932011,95.3333333 L267.937884,88.3333333 C268.271497,88 268.271497,87.3333333 267.937884,87 C267.604271,86.6666667 266.937045,86.6666667 266.603432,87 L266.603432,87 Z M257.262268,93.3333333 L257.929494,93.3333333 C258.263107,93.3333333 258.263107,93.3333333 258.59672,93 L270.606788,80.6666667 C270.940401,80.3333333 270.940401,79.6666667 270.606788,79.3333333 C270.273175,79 269.605949,79 269.272336,79.3333333 L257.262268,91.6666667 C256.928655,92.3333333 256.928655,93 257.262268,93.3333333 L257.262268,93.3333333 Z M259.263946,86.3333333 L266.269819,79.3333333 C266.603432,79 266.603432,78.3333333 266.269819,78 C265.936206,77.6666667 265.26898,77.6666667 264.935367,78 L257.929494,85 C257.595881,85.3333333 257.595881,86 257.929494,86.3333333 C257.929494,86.6666667 258.263107,86.6666667 258.59672,86.6666667 C258.930333,86.6666667 258.930333,86.6666667 259.263946,86.3333333 L259.263946,86.3333333 Z M267.604271,72.3333333 C267.937884,72 267.937884,71.3333333 267.604271,71 C267.270658,70.6666667 266.603432,70.6666667 266.269819,71 L254.593364,83.3333333 C254.259751,83.6666667 254.259751,84.3333333 254.593364,84.6666667 C254.926977,85 254.926977,85 255.26059,85 C255.594203,85 255.594203,85 255.927816,84.6666667 L267.604271,72.3333333 L267.604271,72.3333333 Z M256.261429,77.6666667 C256.595042,77.6666667 256.595042,77.6666667 256.928655,77.3333333 L263.934528,70.3333333 C264.268141,70 264.268141,69.3333333 263.934528,69 C263.600915,68.6666667 262.933689,68.6666667 262.600076,69 L255.594203,76 C255.26059,76.3333333 255.26059,77 255.594203,77.3333333 C255.927816,77.6666667 255.927816,77.6666667 256.261429,77.6666667 L256.261429,77.6666667 Z" id="Shape"></path>
            </g>
        </g>
    </g>
</svg>