<?xml version="1.0" encoding="UTF-8" standalone="no"?>
<svg width="284px" height="284px" viewBox="0 0 284 284" version="1.1" xmlns="http://www.w3.org/2000/svg" xmlns:xlink="http://www.w3.org/1999/xlink">
    <!-- Generator: Sketch 3.8.1 (29687) - http://www.bohemiancoding.com/sketch -->
    <title>waste</title>
    <desc>Created with Sketch.</desc>
    <defs></defs>
    <g id="Page-1" stroke="none" stroke-width="1" fill="none" fill-rule="evenodd">
        <g id="Artboard-2-Copy" transform="translate(-828.000000, -182.000000)" fill="#FB7852">
            <g id="waste" transform="translate(828.000000, 182.000000)">
                <g id="Group">
                    <g transform="translate(77.807947, 44.370861)" id="Shape">
                        <path d="M119.599338,23.3741722 L8.36953642,23.3741722 C3.7615894,23.3741722 0.0271523179,27.2331126 0.0271523179,31.9940397 C0.0271523179,36.7543046 3.7615894,40.613245 8.36953642,40.613245 L105.282119,40.613245 L122.119205,23.7761589 C121.323179,23.515894 120.477483,23.3741722 119.599338,23.3741722 L119.599338,23.3741722 Z"></path>
                        <path d="M56.3225166,18.0443709 L71.6463576,18.0443709 C76.2430464,18.0443709 79.9735099,14.1245033 79.9735099,9.28741722 C79.9735099,4.45099338 76.2430464,0.530463576 71.6463576,0.530463576 L56.3225166,0.530463576 C51.7225166,0.530463576 47.994702,4.45099338 47.994702,9.28741722 C47.994702,14.1245033 51.7231788,18.0443709 56.3225166,18.0443709 L56.3225166,18.0443709 Z"></path>
                        <path d="M26.6754967,50.0225166 L10.6860927,50.0225166 L10.6860927,135.209272 L26.6754967,119.219205 L26.6754967,50.0225166 L26.6754967,50.0225166 Z"></path>
                        <path d="M101.292715,78.0417219 L101.292715,161.947682 C101.292715,167.276821 95.9622517,167.276821 95.9622517,167.276821 L32.005298,167.276821 C32.005298,167.276821 26.6748344,167.276821 26.6748344,161.947682 L26.6748344,152.659603 L10.6986755,168.635099 C10.9788079,183.550993 15.9728477,188.288079 26.3238411,188.288079 L101.292053,188.596026 C112.256954,188.323179 117.280795,183.266887 117.280795,167.277483 L117.280795,62.0523179 L101.292715,78.0417219 L101.292715,78.0417219 Z"></path>
                        <polygon points="37.3344371 141.998675 37.3344371 156.617219 47.994702 156.617219 47.994702 131.339073"></polygon>
                        <polygon points="47.994702 50.0225166 37.3344371 50.0225166 37.3344371 108.560265 47.994702 97.9006623"></polygon>
                        <polygon points="69.313245 50.0225166 58.6536424 50.0225166 58.6536424 87.2410596 69.313245 76.581457"></polygon>
                        <polygon points="58.6536424 120.680132 58.6536424 156.617219 69.313245 156.617219 69.313245 110.02053"></polygon>
                        <polygon points="90.6331126 50.0225166 79.9741722 50.0225166 79.9741722 65.9218543 90.6331126 55.2622517"></polygon>
                        <polygon points="79.9741722 99.3602649 79.9741722 156.617219 90.6331126 156.617219 90.6331126 88.7013245"></polygon>
                    </g>
                    <path d="M142.113907,17.1470199 C171.816556,17.1470199 199.929801,27.4609272 222.378808,46.3807947 L234.265563,34.492053 C208.622517,12.4317881 176.29404,0.397350993 142.113907,0.397350993 C105.63245,0.397350993 71.2609272,14.1119205 44.8768212,39.0966887 L56.7298013,50.9490066 C79.9450331,29.1245033 110.107947,17.1470199 142.113907,17.1470199 L142.113907,17.1470199 Z" id="Shape"></path>
                    <path d="M40.7907285,43.1317881 C14.8562914,69.7125828 0.588741722,104.718543 0.588741722,141.922517 C0.588741722,176.003974 12.5516556,208.24702 34.4933775,233.854967 L34.6933775,234.012583 L46.5728477,222.186755 C27.6529801,199.737748 17.3384106,171.623841 17.3384106,141.922517 C17.3384106,109.193377 29.8635762,78.3933775 52.6350993,54.9768212 L40.7907285,43.1317881 L40.7907285,43.1317881 Z" id="Shape"></path>
                    <path d="M283.653642,141.922517 C283.653642,108.43245 272.090066,76.7211921 250.862914,51.3344371 L238.968212,63.2298013 C257.062252,85.4112583 266.903311,112.909934 266.903311,141.921854 C266.903311,173.933775 254.925828,204.101325 233.1,227.318543 L244.951656,239.170199 C269.937748,212.786093 283.653642,178.409272 283.653642,141.922517 L283.653642,141.922517 Z" id="Shape"></path>
                    <path d="M142.113907,266.709934 C113.102649,266.709934 85.6046358,256.870861 63.4225166,238.774834 L51.5980132,250.741722 C76.9721854,271.927152 108.657616,283.459603 142.11457,283.459603 C179.324503,283.459603 214.335762,269.191391 240.917219,243.256291 L229.072848,231.411921 C205.654305,254.18543 174.849007,266.709934 142.113907,266.709934 L142.113907,266.709934 Z" id="Shape"></path>
                    <rect id="Rectangle-path" transform="translate(142.712530, 142.286816) rotate(-45.000000) translate(-142.712530, -142.286816) " x="0.945677577" y="135.649794" width="283.533705" height="13.2740449"></rect>
                </g>
            </g>
        </g>
    </g>
</svg>